G04 #@! TF.GenerationSoftware,KiCad,Pcbnew,8.0.4*
G04 #@! TF.CreationDate,2024-11-02T15:19:06-05:00*
G04 #@! TF.ProjectId,megaduck,6d656761-6475-4636-9b2e-6b696361645f,v1.0*
G04 #@! TF.SameCoordinates,Original*
G04 #@! TF.FileFunction,Soldermask,Top*
G04 #@! TF.FilePolarity,Negative*
%FSLAX46Y46*%
G04 Gerber Fmt 4.6, Leading zero omitted, Abs format (unit mm)*
G04 Created by KiCad (PCBNEW 8.0.4) date 2024-11-02 15:19:06*
%MOMM*%
%LPD*%
G01*
G04 APERTURE LIST*
G04 Aperture macros list*
%AMRoundRect*
0 Rectangle with rounded corners*
0 $1 Rounding radius*
0 $2 $3 $4 $5 $6 $7 $8 $9 X,Y pos of 4 corners*
0 Add a 4 corners polygon primitive as box body*
4,1,4,$2,$3,$4,$5,$6,$7,$8,$9,$2,$3,0*
0 Add four circle primitives for the rounded corners*
1,1,$1+$1,$2,$3*
1,1,$1+$1,$4,$5*
1,1,$1+$1,$6,$7*
1,1,$1+$1,$8,$9*
0 Add four rect primitives between the rounded corners*
20,1,$1+$1,$2,$3,$4,$5,0*
20,1,$1+$1,$4,$5,$6,$7,0*
20,1,$1+$1,$6,$7,$8,$9,0*
20,1,$1+$1,$8,$9,$2,$3,0*%
G04 Aperture macros list end*
%ADD10C,0.800000*%
%ADD11C,6.000000*%
%ADD12RoundRect,0.200000X-0.200000X-0.275000X0.200000X-0.275000X0.200000X0.275000X-0.200000X0.275000X0*%
%ADD13RoundRect,0.225000X-0.225000X-0.250000X0.225000X-0.250000X0.225000X0.250000X-0.225000X0.250000X0*%
%ADD14C,2.000000*%
%ADD15R,1.000000X2.400000*%
%ADD16R,6.000000X3.000000*%
G04 #@! TA.AperFunction,Profile*
%ADD17C,0.050000*%
G04 #@! TD*
G04 APERTURE END LIST*
D10*
G04 #@! TO.C,H5*
X177901600Y-24910000D03*
X178560610Y-23319010D03*
X178560610Y-26500990D03*
X180151600Y-22660000D03*
D11*
X180151600Y-24910000D03*
D10*
X180151600Y-27160000D03*
X181742590Y-23319010D03*
X181742590Y-26500990D03*
X182401600Y-24910000D03*
G04 #@! TD*
D12*
G04 #@! TO.C,R1*
X119695200Y-23121400D03*
X121345200Y-23121400D03*
G04 #@! TD*
D13*
G04 #@! TO.C,C1*
X173275200Y-23121400D03*
X174825200Y-23121400D03*
G04 #@! TD*
D10*
G04 #@! TO.C,H1*
X113710000Y-24910000D03*
X114369010Y-23319010D03*
X114369010Y-26500990D03*
X115960000Y-22660000D03*
D11*
X115960000Y-24910000D03*
D10*
X115960000Y-27160000D03*
X117550990Y-23319010D03*
X117550990Y-26500990D03*
X118210000Y-24910000D03*
G04 #@! TD*
D14*
G04 #@! TO.C,J3*
X161100400Y-31804000D03*
X135100400Y-31804000D03*
D15*
X171350400Y-23604000D03*
X169850400Y-23604000D03*
X168350400Y-23604000D03*
X166850400Y-23604000D03*
X165350400Y-23604000D03*
X163850400Y-23604000D03*
X162350400Y-23604000D03*
X160850400Y-23604000D03*
X159350400Y-23604000D03*
X157850400Y-23604000D03*
X156350400Y-23604000D03*
X154850400Y-23604000D03*
X153350400Y-23604000D03*
X151850400Y-23604000D03*
X150350400Y-23604000D03*
X148850400Y-23604000D03*
X147350400Y-23604000D03*
X145850400Y-23604000D03*
X144350400Y-23604000D03*
X142850400Y-23604000D03*
X141350400Y-23604000D03*
X139850400Y-23604000D03*
X138350400Y-23604000D03*
X136850400Y-23604000D03*
X135350400Y-23604000D03*
X133850400Y-23604000D03*
X132350400Y-23604000D03*
X130850400Y-23604000D03*
X129350400Y-23604000D03*
X127850400Y-23604000D03*
X126350400Y-23604000D03*
X124850400Y-23604000D03*
D16*
X161100400Y-43804000D03*
X135100400Y-43804000D03*
G04 #@! TD*
D10*
G04 #@! TO.C,H2*
X113710000Y-38690000D03*
X114369010Y-37099010D03*
X114369010Y-40280990D03*
X115960000Y-36440000D03*
D11*
X115960000Y-38690000D03*
D10*
X115960000Y-40940000D03*
X117550990Y-37099010D03*
X117550990Y-40280990D03*
X118210000Y-38690000D03*
G04 #@! TD*
G04 #@! TO.C,H6*
X177901600Y-38690000D03*
X178560610Y-37099010D03*
X178560610Y-40280990D03*
X180151600Y-36440000D03*
D11*
X180151600Y-38690000D03*
D10*
X180151600Y-40940000D03*
X181742590Y-37099010D03*
X181742590Y-40280990D03*
X182401600Y-38690000D03*
G04 #@! TD*
D17*
X118398800Y-21470400D02*
X112242600Y-21470400D01*
X124444000Y-46616400D02*
X124317000Y-46616400D01*
X177834800Y-46616400D02*
X172069000Y-46616400D01*
X177834800Y-46616400D02*
X183946800Y-46616400D01*
X118398800Y-21470400D02*
X177834800Y-21470400D01*
X118398800Y-46616400D02*
X124317000Y-46616400D01*
X177834800Y-21470400D02*
X183946800Y-21470400D01*
X124444000Y-46616400D02*
X172069000Y-46616400D01*
X183946800Y-21470400D02*
X183946800Y-46616400D01*
X118398800Y-46616400D02*
X112242600Y-46616400D01*
X112242600Y-21470400D02*
X112242600Y-46616400D01*
M02*
