G04 #@! TF.GenerationSoftware,KiCad,Pcbnew,8.0.4*
G04 #@! TF.CreationDate,2024-11-02T15:19:06-05:00*
G04 #@! TF.ProjectId,megaduck,6d656761-6475-4636-9b2e-6b696361645f,v1.0*
G04 #@! TF.SameCoordinates,Original*
G04 #@! TF.FileFunction,Copper,L2,Inr*
G04 #@! TF.FilePolarity,Positive*
%FSLAX46Y46*%
G04 Gerber Fmt 4.6, Leading zero omitted, Abs format (unit mm)*
G04 Created by KiCad (PCBNEW 8.0.4) date 2024-11-02 15:19:06*
%MOMM*%
%LPD*%
G01*
G04 APERTURE LIST*
G04 #@! TA.AperFunction,ComponentPad*
%ADD10C,0.800000*%
G04 #@! TD*
G04 #@! TA.AperFunction,ComponentPad*
%ADD11C,6.000000*%
G04 #@! TD*
G04 #@! TA.AperFunction,ViaPad*
%ADD12C,0.600000*%
G04 #@! TD*
G04 #@! TA.AperFunction,Conductor*
%ADD13C,0.254000*%
G04 #@! TD*
G04 #@! TA.AperFunction,Conductor*
%ADD14C,0.200000*%
G04 #@! TD*
G04 #@! TA.AperFunction,Profile*
%ADD15C,0.050000*%
G04 #@! TD*
G04 APERTURE END LIST*
D10*
G04 #@! TO.N,GND*
G04 #@! TO.C,H5*
X177901600Y-24910000D03*
X178560610Y-23319010D03*
X178560610Y-26500990D03*
X180151600Y-22660000D03*
D11*
X180151600Y-24910000D03*
D10*
X180151600Y-27160000D03*
X181742590Y-23319010D03*
X181742590Y-26500990D03*
X182401600Y-24910000D03*
G04 #@! TD*
G04 #@! TO.N,GND*
G04 #@! TO.C,H1*
X113710000Y-24910000D03*
X114369010Y-23319010D03*
X114369010Y-26500990D03*
X115960000Y-22660000D03*
D11*
X115960000Y-24910000D03*
D10*
X115960000Y-27160000D03*
X117550990Y-23319010D03*
X117550990Y-26500990D03*
X118210000Y-24910000D03*
G04 #@! TD*
G04 #@! TO.N,GND*
G04 #@! TO.C,H2*
X113710000Y-38690000D03*
X114369010Y-37099010D03*
X114369010Y-40280990D03*
X115960000Y-36440000D03*
D11*
X115960000Y-38690000D03*
D10*
X115960000Y-40940000D03*
X117550990Y-37099010D03*
X117550990Y-40280990D03*
X118210000Y-38690000D03*
G04 #@! TD*
G04 #@! TO.N,GND*
G04 #@! TO.C,H6*
X177901600Y-38690000D03*
X178560610Y-37099010D03*
X178560610Y-40280990D03*
X180151600Y-36440000D03*
D11*
X180151600Y-38690000D03*
D10*
X180151600Y-40940000D03*
X181742590Y-37099010D03*
X181742590Y-40280990D03*
X182401600Y-38690000D03*
G04 #@! TD*
D12*
G04 #@! TO.N,/A5*
X156346400Y-25686800D03*
G04 #@! TO.N,/PHI*
X169859200Y-25686800D03*
G04 #@! TO.N,/VCC*
X120670000Y-24180000D03*
G04 #@! TO.N,/~{RD}*
X167141400Y-32214600D03*
G04 #@! TO.N,/A8*
X153603200Y-32417800D03*
G04 #@! TO.N,/A4*
X158632400Y-32570200D03*
G04 #@! TO.N,/A12*
X148574000Y-32519400D03*
G04 #@! TO.N,/VIN+*
X123961400Y-39809200D03*
G04 #@! TO.N,/A7*
X153374600Y-25585200D03*
G04 #@! TO.N,/A2*
X162950400Y-32417800D03*
G04 #@! TO.N,Net-(J3-VIN)*
X126374400Y-25534400D03*
G04 #@! TO.N,/VCC*
X171350400Y-25432800D03*
G04 #@! TO.N,/A11*
X147354800Y-25559800D03*
G04 #@! TO.N,/VIN+*
X131606800Y-31274800D03*
G04 #@! TO.N,/A6*
X156194000Y-32443200D03*
G04 #@! TO.N,/A15*
X141360400Y-25559800D03*
G04 #@! TO.N,GND*
X119389400Y-27185400D03*
X135924800Y-41663400D03*
G04 #@! TO.N,/D0*
X143214600Y-32544800D03*
G04 #@! TO.N,/A9*
X150352000Y-25585200D03*
G04 #@! TO.N,/D1*
X138363200Y-25534400D03*
G04 #@! TO.N,/~{WR}*
X168360600Y-25610600D03*
G04 #@! TO.N,GND*
X176793400Y-44965400D03*
G04 #@! TO.N,/A10*
X151088600Y-32494000D03*
G04 #@! TO.N,/D4*
X138236200Y-32392400D03*
G04 #@! TO.N,/D5*
X132350400Y-25534400D03*
G04 #@! TO.N,GND*
X176069800Y-23121400D03*
G04 #@! TO.N,/~{RES}*
X127847600Y-25534400D03*
G04 #@! TO.N,/D7*
X129346200Y-25559800D03*
G04 #@! TO.N,/D6*
X135645400Y-34297400D03*
G04 #@! TO.N,GND*
X126530000Y-31660000D03*
G04 #@! TO.N,/~{CS}*
X165338000Y-25610600D03*
G04 #@! TO.N,GND*
X119389400Y-44965400D03*
X126526800Y-36380200D03*
G04 #@! TO.N,/A1*
X162340800Y-25610600D03*
G04 #@! TO.N,GND*
X176793400Y-27185400D03*
G04 #@! TO.N,/A3*
X159343600Y-25636000D03*
G04 #@! TO.N,GND*
X161959800Y-41663400D03*
G04 #@! TO.N,/A0*
X164626800Y-32214600D03*
G04 #@! TO.N,/D2*
X140674600Y-32468600D03*
G04 #@! TO.N,/D3*
X135340600Y-25534400D03*
G04 #@! TO.N,GND*
X124843000Y-25534400D03*
G04 #@! TO.N,/~{RES}*
X122380000Y-24070000D03*
G04 #@! TO.N,/A13*
X144357600Y-25509000D03*
G04 #@! TO.N,/A14*
X145932400Y-32671800D03*
G04 #@! TD*
D13*
G04 #@! TO.N,/VCC*
X171350400Y-25629600D02*
X171350400Y-25432800D01*
X120670000Y-24180000D02*
X122990000Y-26500000D01*
X170480000Y-26500000D02*
X171350400Y-25629600D01*
X122990000Y-26500000D02*
X170480000Y-26500000D01*
D14*
G04 #@! TO.N,/VIN+*
X123961400Y-39809200D02*
X129030800Y-39809200D01*
X129030800Y-39809200D02*
X130150000Y-38690000D01*
X130150000Y-32731600D02*
X131606800Y-31274800D01*
X130150000Y-38690000D02*
X130150000Y-32731600D01*
D13*
G04 #@! TO.N,/~{RES}*
X126980000Y-24070000D02*
X127847600Y-24937600D01*
X122380000Y-24070000D02*
X126980000Y-24070000D01*
X127847600Y-24937600D02*
X127847600Y-25534400D01*
G04 #@! TD*
G04 #@! TA.AperFunction,Conductor*
G04 #@! TO.N,GND*
G36*
X125846899Y-24717185D02*
G01*
X125892654Y-24769989D01*
X125902598Y-24839147D01*
X125873573Y-24902703D01*
X125867541Y-24909181D01*
X125744584Y-25032137D01*
X125648611Y-25184876D01*
X125589031Y-25355145D01*
X125589030Y-25355150D01*
X125568835Y-25534396D01*
X125568835Y-25534403D01*
X125589030Y-25713649D01*
X125590582Y-25720447D01*
X125587587Y-25721130D01*
X125590455Y-25777327D01*
X125555725Y-25837953D01*
X125493730Y-25870179D01*
X125469852Y-25872500D01*
X123301281Y-25872500D01*
X123234242Y-25852815D01*
X123213600Y-25836181D01*
X122447918Y-25070499D01*
X122414433Y-25009176D01*
X122419417Y-24939484D01*
X122461289Y-24883551D01*
X122521716Y-24859598D01*
X122559250Y-24855369D01*
X122559253Y-24855368D01*
X122559255Y-24855368D01*
X122729522Y-24795789D01*
X122855700Y-24716505D01*
X122921672Y-24697500D01*
X125779860Y-24697500D01*
X125846899Y-24717185D01*
G37*
G04 #@! TD.AperFunction*
G04 #@! TA.AperFunction,Conductor*
G36*
X177936404Y-21990585D02*
G01*
X177982159Y-22043389D01*
X177992103Y-22112547D01*
X177963078Y-22176103D01*
X177947400Y-22191266D01*
X177858449Y-22263296D01*
X177858449Y-22263297D01*
X179282493Y-23687341D01*
X179174416Y-23765864D01*
X179007464Y-23932816D01*
X178928941Y-24040893D01*
X177504897Y-22616849D01*
X177504896Y-22616849D01*
X177316157Y-22849924D01*
X177116354Y-23157594D01*
X176949804Y-23484464D01*
X176818336Y-23826948D01*
X176723384Y-24181313D01*
X176723384Y-24181315D01*
X176665997Y-24543646D01*
X176646797Y-24909999D01*
X176646797Y-24910000D01*
X176665997Y-25276353D01*
X176723384Y-25638684D01*
X176723384Y-25638686D01*
X176818336Y-25993051D01*
X176949804Y-26335535D01*
X177116354Y-26662406D01*
X177316153Y-26970070D01*
X177504897Y-27203148D01*
X178928940Y-25779105D01*
X179007464Y-25887184D01*
X179174416Y-26054136D01*
X179282493Y-26132658D01*
X177858450Y-27556701D01*
X178091529Y-27745446D01*
X178399193Y-27945245D01*
X178726064Y-28111795D01*
X179068548Y-28243263D01*
X179422914Y-28338215D01*
X179785246Y-28395602D01*
X180151599Y-28414803D01*
X180151601Y-28414803D01*
X180517953Y-28395602D01*
X180880284Y-28338215D01*
X180880286Y-28338215D01*
X181234651Y-28243263D01*
X181577135Y-28111795D01*
X181904006Y-27945245D01*
X182211664Y-27745450D01*
X182444748Y-27556701D01*
X181020706Y-26132659D01*
X181128784Y-26054136D01*
X181295736Y-25887184D01*
X181374259Y-25779106D01*
X182798301Y-27203148D01*
X182987050Y-26970064D01*
X183186847Y-26662404D01*
X183186848Y-26662401D01*
X183211815Y-26613402D01*
X183259789Y-26562605D01*
X183327610Y-26545810D01*
X183393745Y-26568347D01*
X183437197Y-26623062D01*
X183446300Y-26669696D01*
X183446300Y-36930304D01*
X183426615Y-36997343D01*
X183373811Y-37043098D01*
X183304653Y-37053042D01*
X183241097Y-37024017D01*
X183211815Y-36986599D01*
X183186845Y-36937594D01*
X182987046Y-36629929D01*
X182798301Y-36396850D01*
X181374258Y-37820893D01*
X181295736Y-37712816D01*
X181128784Y-37545864D01*
X181020706Y-37467340D01*
X182444749Y-36043297D01*
X182211670Y-35854553D01*
X181904006Y-35654754D01*
X181577135Y-35488204D01*
X181234651Y-35356736D01*
X180880285Y-35261784D01*
X180517953Y-35204397D01*
X180151601Y-35185197D01*
X180151599Y-35185197D01*
X179785246Y-35204397D01*
X179422915Y-35261784D01*
X179422913Y-35261784D01*
X179068548Y-35356736D01*
X178726064Y-35488204D01*
X178399194Y-35654754D01*
X178091524Y-35854557D01*
X177858449Y-36043296D01*
X177858449Y-36043297D01*
X179282493Y-37467341D01*
X179174416Y-37545864D01*
X179007464Y-37712816D01*
X178928941Y-37820893D01*
X177504897Y-36396849D01*
X177504896Y-36396849D01*
X177316157Y-36629924D01*
X177116354Y-36937594D01*
X176949804Y-37264464D01*
X176818336Y-37606948D01*
X176723384Y-37961313D01*
X176723384Y-37961315D01*
X176665997Y-38323646D01*
X176646797Y-38689999D01*
X176646797Y-38690000D01*
X176665997Y-39056353D01*
X176723384Y-39418684D01*
X176723384Y-39418686D01*
X176818336Y-39773051D01*
X176949804Y-40115535D01*
X177116354Y-40442406D01*
X177316153Y-40750070D01*
X177504897Y-40983148D01*
X178928940Y-39559105D01*
X179007464Y-39667184D01*
X179174416Y-39834136D01*
X179282493Y-39912658D01*
X177858450Y-41336701D01*
X178091529Y-41525446D01*
X178399193Y-41725245D01*
X178726064Y-41891795D01*
X179068548Y-42023263D01*
X179422914Y-42118215D01*
X179785246Y-42175602D01*
X180151599Y-42194803D01*
X180151601Y-42194803D01*
X180517953Y-42175602D01*
X180880284Y-42118215D01*
X180880286Y-42118215D01*
X181234651Y-42023263D01*
X181577135Y-41891795D01*
X181904006Y-41725245D01*
X182211664Y-41525450D01*
X182444748Y-41336701D01*
X181020706Y-39912659D01*
X181128784Y-39834136D01*
X181295736Y-39667184D01*
X181374259Y-39559106D01*
X182798301Y-40983148D01*
X182987050Y-40750064D01*
X183186847Y-40442404D01*
X183186848Y-40442401D01*
X183211815Y-40393402D01*
X183259789Y-40342605D01*
X183327610Y-40325810D01*
X183393745Y-40348347D01*
X183437197Y-40403062D01*
X183446300Y-40449696D01*
X183446300Y-45991900D01*
X183426615Y-46058939D01*
X183373811Y-46104694D01*
X183322300Y-46115900D01*
X112867100Y-46115900D01*
X112800061Y-46096215D01*
X112754306Y-46043411D01*
X112743100Y-45991900D01*
X112743100Y-40581299D01*
X112762785Y-40514260D01*
X112815589Y-40468505D01*
X112884747Y-40458561D01*
X112948303Y-40487586D01*
X112971095Y-40513764D01*
X113124553Y-40750070D01*
X113313297Y-40983148D01*
X114737340Y-39559105D01*
X114815864Y-39667184D01*
X114982816Y-39834136D01*
X115090893Y-39912658D01*
X113666850Y-41336701D01*
X113899929Y-41525446D01*
X114207593Y-41725245D01*
X114534464Y-41891795D01*
X114876948Y-42023263D01*
X115231314Y-42118215D01*
X115593646Y-42175602D01*
X115959999Y-42194803D01*
X115960001Y-42194803D01*
X116326353Y-42175602D01*
X116688684Y-42118215D01*
X116688686Y-42118215D01*
X117043051Y-42023263D01*
X117385535Y-41891795D01*
X117712406Y-41725245D01*
X118020064Y-41525450D01*
X118253148Y-41336701D01*
X116829106Y-39912659D01*
X116937184Y-39834136D01*
X117104136Y-39667184D01*
X117182659Y-39559106D01*
X118606701Y-40983148D01*
X118795450Y-40750064D01*
X118995245Y-40442406D01*
X119161795Y-40115535D01*
X119279388Y-39809196D01*
X123155835Y-39809196D01*
X123155835Y-39809203D01*
X123176030Y-39988449D01*
X123176031Y-39988454D01*
X123235611Y-40158723D01*
X123331584Y-40311462D01*
X123459138Y-40439016D01*
X123536437Y-40487586D01*
X123578098Y-40513764D01*
X123611878Y-40534989D01*
X123782145Y-40594568D01*
X123782150Y-40594569D01*
X123961396Y-40614765D01*
X123961400Y-40614765D01*
X123961404Y-40614765D01*
X124140649Y-40594569D01*
X124140652Y-40594568D01*
X124140655Y-40594568D01*
X124310922Y-40534989D01*
X124463662Y-40439016D01*
X124463667Y-40439010D01*
X124466497Y-40436755D01*
X124468675Y-40435865D01*
X124469558Y-40435311D01*
X124469655Y-40435465D01*
X124531183Y-40410345D01*
X124543812Y-40409700D01*
X128944131Y-40409700D01*
X128944147Y-40409701D01*
X128951743Y-40409701D01*
X129109854Y-40409701D01*
X129109857Y-40409701D01*
X129262585Y-40368777D01*
X129312704Y-40339839D01*
X129399516Y-40289720D01*
X129511320Y-40177916D01*
X129511320Y-40177914D01*
X129521528Y-40167707D01*
X129521530Y-40167704D01*
X130518713Y-39170521D01*
X130518716Y-39170520D01*
X130630520Y-39058716D01*
X130680639Y-38971904D01*
X130709577Y-38921785D01*
X130750501Y-38769057D01*
X130750501Y-38610943D01*
X130750501Y-38603348D01*
X130750500Y-38603330D01*
X130750500Y-34297396D01*
X134839835Y-34297396D01*
X134839835Y-34297403D01*
X134860030Y-34476649D01*
X134860031Y-34476654D01*
X134919611Y-34646923D01*
X135015584Y-34799662D01*
X135143138Y-34927216D01*
X135295878Y-35023189D01*
X135466145Y-35082768D01*
X135466150Y-35082769D01*
X135645396Y-35102965D01*
X135645400Y-35102965D01*
X135645404Y-35102965D01*
X135824649Y-35082769D01*
X135824652Y-35082768D01*
X135824655Y-35082768D01*
X135994922Y-35023189D01*
X136147662Y-34927216D01*
X136275216Y-34799662D01*
X136371189Y-34646922D01*
X136430768Y-34476655D01*
X136450965Y-34297400D01*
X136430768Y-34118145D01*
X136371189Y-33947878D01*
X136275216Y-33795138D01*
X136147662Y-33667584D01*
X135994923Y-33571611D01*
X135824654Y-33512031D01*
X135824649Y-33512030D01*
X135645404Y-33491835D01*
X135645396Y-33491835D01*
X135466150Y-33512030D01*
X135466145Y-33512031D01*
X135295876Y-33571611D01*
X135143137Y-33667584D01*
X135015584Y-33795137D01*
X134919611Y-33947876D01*
X134860031Y-34118145D01*
X134860030Y-34118150D01*
X134839835Y-34297396D01*
X130750500Y-34297396D01*
X130750500Y-33031696D01*
X130770185Y-32964657D01*
X130786815Y-32944019D01*
X131625335Y-32105498D01*
X131686656Y-32072015D01*
X131699111Y-32069963D01*
X131786055Y-32060168D01*
X131956322Y-32000589D01*
X132109062Y-31904616D01*
X132236616Y-31777062D01*
X132281533Y-31705577D01*
X133849900Y-31705577D01*
X133849900Y-31902422D01*
X133880690Y-32096826D01*
X133941517Y-32284029D01*
X134009675Y-32417796D01*
X134030876Y-32459405D01*
X134146572Y-32618646D01*
X134285754Y-32757828D01*
X134444995Y-32873524D01*
X134485814Y-32894322D01*
X134620370Y-32962882D01*
X134620372Y-32962882D01*
X134620375Y-32962884D01*
X134720717Y-32995487D01*
X134807573Y-33023709D01*
X135001978Y-33054500D01*
X135001983Y-33054500D01*
X135198822Y-33054500D01*
X135393226Y-33023709D01*
X135404133Y-33020165D01*
X135580425Y-32962884D01*
X135755805Y-32873524D01*
X135915046Y-32757828D01*
X136054228Y-32618646D01*
X136169924Y-32459405D01*
X136204067Y-32392396D01*
X137430635Y-32392396D01*
X137430635Y-32392403D01*
X137450830Y-32571649D01*
X137450831Y-32571654D01*
X137510411Y-32741923D01*
X137574812Y-32844416D01*
X137606384Y-32894662D01*
X137733938Y-33022216D01*
X137886678Y-33118189D01*
X137975348Y-33149216D01*
X138056945Y-33177768D01*
X138056950Y-33177769D01*
X138236196Y-33197965D01*
X138236200Y-33197965D01*
X138236204Y-33197965D01*
X138415449Y-33177769D01*
X138415452Y-33177768D01*
X138415455Y-33177768D01*
X138585722Y-33118189D01*
X138738462Y-33022216D01*
X138866016Y-32894662D01*
X138961989Y-32741922D01*
X139021568Y-32571655D01*
X139021732Y-32570200D01*
X139033180Y-32468596D01*
X139869035Y-32468596D01*
X139869035Y-32468603D01*
X139889230Y-32647849D01*
X139889231Y-32647854D01*
X139948811Y-32818123D01*
X140027915Y-32944015D01*
X140044784Y-32970862D01*
X140172338Y-33098416D01*
X140212762Y-33123816D01*
X140284652Y-33168988D01*
X140325078Y-33194389D01*
X140407887Y-33223365D01*
X140495345Y-33253968D01*
X140495350Y-33253969D01*
X140674596Y-33274165D01*
X140674600Y-33274165D01*
X140674604Y-33274165D01*
X140853849Y-33253969D01*
X140853852Y-33253968D01*
X140853855Y-33253968D01*
X141024122Y-33194389D01*
X141176862Y-33098416D01*
X141304416Y-32970862D01*
X141400389Y-32818122D01*
X141459968Y-32647855D01*
X141461188Y-32637026D01*
X141471580Y-32544796D01*
X142409035Y-32544796D01*
X142409035Y-32544803D01*
X142429230Y-32724049D01*
X142429231Y-32724054D01*
X142488811Y-32894323D01*
X142569172Y-33022216D01*
X142584784Y-33047062D01*
X142712338Y-33174616D01*
X142752762Y-33200016D01*
X142824652Y-33245188D01*
X142865078Y-33270589D01*
X142953748Y-33301616D01*
X143035345Y-33330168D01*
X143035350Y-33330169D01*
X143214596Y-33350365D01*
X143214600Y-33350365D01*
X143214604Y-33350365D01*
X143393849Y-33330169D01*
X143393852Y-33330168D01*
X143393855Y-33330168D01*
X143564122Y-33270589D01*
X143716862Y-33174616D01*
X143844416Y-33047062D01*
X143940389Y-32894322D01*
X143999968Y-32724055D01*
X143999969Y-32724049D01*
X144005856Y-32671796D01*
X145126835Y-32671796D01*
X145126835Y-32671803D01*
X145147030Y-32851049D01*
X145147031Y-32851054D01*
X145206611Y-33021323D01*
X145286972Y-33149216D01*
X145302584Y-33174062D01*
X145430138Y-33301616D01*
X145582878Y-33397589D01*
X145753145Y-33457168D01*
X145753150Y-33457169D01*
X145932396Y-33477365D01*
X145932400Y-33477365D01*
X145932404Y-33477365D01*
X146111649Y-33457169D01*
X146111652Y-33457168D01*
X146111655Y-33457168D01*
X146281922Y-33397589D01*
X146434662Y-33301616D01*
X146562216Y-33174062D01*
X146658189Y-33021322D01*
X146717768Y-32851055D01*
X146721193Y-32820659D01*
X146737965Y-32671803D01*
X146737965Y-32671796D01*
X146720794Y-32519396D01*
X147768435Y-32519396D01*
X147768435Y-32519403D01*
X147788630Y-32698649D01*
X147788631Y-32698654D01*
X147848211Y-32868923D01*
X147895395Y-32944015D01*
X147944184Y-33021662D01*
X148071738Y-33149216D01*
X148112162Y-33174616D01*
X148184052Y-33219788D01*
X148224478Y-33245189D01*
X148307287Y-33274165D01*
X148394745Y-33304768D01*
X148394750Y-33304769D01*
X148573996Y-33324965D01*
X148574000Y-33324965D01*
X148574004Y-33324965D01*
X148753249Y-33304769D01*
X148753252Y-33304768D01*
X148753255Y-33304768D01*
X148923522Y-33245189D01*
X149076262Y-33149216D01*
X149203816Y-33021662D01*
X149299789Y-32868922D01*
X149359368Y-32698655D01*
X149362231Y-32673249D01*
X149379565Y-32519403D01*
X149379565Y-32519396D01*
X149376703Y-32493996D01*
X150283035Y-32493996D01*
X150283035Y-32494003D01*
X150303230Y-32673249D01*
X150303231Y-32673254D01*
X150362811Y-32843523D01*
X150425955Y-32944015D01*
X150458784Y-32996262D01*
X150586338Y-33123816D01*
X150626762Y-33149216D01*
X150698652Y-33194388D01*
X150739078Y-33219789D01*
X150821887Y-33248765D01*
X150909345Y-33279368D01*
X150909350Y-33279369D01*
X151088596Y-33299565D01*
X151088600Y-33299565D01*
X151088604Y-33299565D01*
X151267849Y-33279369D01*
X151267852Y-33279368D01*
X151267855Y-33279368D01*
X151438122Y-33219789D01*
X151590862Y-33123816D01*
X151718416Y-32996262D01*
X151814389Y-32843522D01*
X151873968Y-32673255D01*
X151874132Y-32671800D01*
X151894165Y-32494003D01*
X151894165Y-32493996D01*
X151885579Y-32417796D01*
X152797635Y-32417796D01*
X152797635Y-32417800D01*
X152817830Y-32597049D01*
X152817831Y-32597054D01*
X152877411Y-32767323D01*
X152944142Y-32873524D01*
X152973384Y-32920062D01*
X153100938Y-33047616D01*
X153141362Y-33073016D01*
X153213252Y-33118188D01*
X153253678Y-33143589D01*
X153342348Y-33174616D01*
X153423945Y-33203168D01*
X153423950Y-33203169D01*
X153603196Y-33223365D01*
X153603200Y-33223365D01*
X153603204Y-33223365D01*
X153782449Y-33203169D01*
X153782452Y-33203168D01*
X153782455Y-33203168D01*
X153952722Y-33143589D01*
X154105462Y-33047616D01*
X154233016Y-32920062D01*
X154328989Y-32767322D01*
X154388568Y-32597055D01*
X154391594Y-32570203D01*
X154405904Y-32443196D01*
X155388435Y-32443196D01*
X155388435Y-32443203D01*
X155408630Y-32622449D01*
X155408631Y-32622454D01*
X155468211Y-32792723D01*
X155532051Y-32894323D01*
X155564184Y-32945462D01*
X155691738Y-33073016D01*
X155732162Y-33098416D01*
X155804052Y-33143588D01*
X155844478Y-33168989D01*
X155933148Y-33200016D01*
X156014745Y-33228568D01*
X156014750Y-33228569D01*
X156193996Y-33248765D01*
X156194000Y-33248765D01*
X156194004Y-33248765D01*
X156373249Y-33228569D01*
X156373252Y-33228568D01*
X156373255Y-33228568D01*
X156543522Y-33168989D01*
X156696262Y-33073016D01*
X156823816Y-32945462D01*
X156919789Y-32792722D01*
X156979368Y-32622455D01*
X156985092Y-32571654D01*
X156985256Y-32570196D01*
X157826835Y-32570196D01*
X157826835Y-32570203D01*
X157847030Y-32749449D01*
X157847031Y-32749454D01*
X157906611Y-32919723D01*
X157986972Y-33047616D01*
X158002584Y-33072462D01*
X158130138Y-33200016D01*
X158161605Y-33219788D01*
X158242452Y-33270588D01*
X158282878Y-33295989D01*
X158365687Y-33324965D01*
X158453145Y-33355568D01*
X158453150Y-33355569D01*
X158632396Y-33375765D01*
X158632400Y-33375765D01*
X158632404Y-33375765D01*
X158811649Y-33355569D01*
X158811652Y-33355568D01*
X158811655Y-33355568D01*
X158981922Y-33295989D01*
X159134662Y-33200016D01*
X159262216Y-33072462D01*
X159358189Y-32919722D01*
X159417768Y-32749455D01*
X159420631Y-32724049D01*
X159437965Y-32570203D01*
X159437965Y-32570196D01*
X159417769Y-32390950D01*
X159417768Y-32390945D01*
X159382218Y-32289350D01*
X159358189Y-32220678D01*
X159354367Y-32214596D01*
X159285818Y-32105500D01*
X159262216Y-32067938D01*
X159134662Y-31940384D01*
X159095120Y-31915538D01*
X158981923Y-31844411D01*
X158811654Y-31784831D01*
X158811649Y-31784830D01*
X158632404Y-31764635D01*
X158632396Y-31764635D01*
X158453150Y-31784830D01*
X158453145Y-31784831D01*
X158282876Y-31844411D01*
X158130137Y-31940384D01*
X158002584Y-32067937D01*
X157906611Y-32220676D01*
X157847031Y-32390945D01*
X157847030Y-32390950D01*
X157826835Y-32570196D01*
X156985256Y-32570196D01*
X156999565Y-32443203D01*
X156999565Y-32443196D01*
X156979369Y-32263950D01*
X156979368Y-32263945D01*
X156964228Y-32220678D01*
X156919789Y-32093678D01*
X156903615Y-32067938D01*
X156839775Y-31966337D01*
X156823816Y-31940938D01*
X156696262Y-31813384D01*
X156543523Y-31717411D01*
X156509704Y-31705577D01*
X159849900Y-31705577D01*
X159849900Y-31902422D01*
X159880690Y-32096826D01*
X159941517Y-32284029D01*
X160009675Y-32417796D01*
X160030876Y-32459405D01*
X160146572Y-32618646D01*
X160285754Y-32757828D01*
X160444995Y-32873524D01*
X160485814Y-32894322D01*
X160620370Y-32962882D01*
X160620372Y-32962882D01*
X160620375Y-32962884D01*
X160720717Y-32995487D01*
X160807573Y-33023709D01*
X161001978Y-33054500D01*
X161001983Y-33054500D01*
X161198822Y-33054500D01*
X161393226Y-33023709D01*
X161404133Y-33020165D01*
X161580425Y-32962884D01*
X161755805Y-32873524D01*
X161915046Y-32757828D01*
X162002365Y-32670508D01*
X162063684Y-32637026D01*
X162133376Y-32642010D01*
X162189310Y-32683881D01*
X162207084Y-32717236D01*
X162224609Y-32767320D01*
X162291342Y-32873524D01*
X162320584Y-32920062D01*
X162448138Y-33047616D01*
X162488562Y-33073016D01*
X162560452Y-33118188D01*
X162600878Y-33143589D01*
X162689548Y-33174616D01*
X162771145Y-33203168D01*
X162771150Y-33203169D01*
X162950396Y-33223365D01*
X162950400Y-33223365D01*
X162950404Y-33223365D01*
X163129649Y-33203169D01*
X163129652Y-33203168D01*
X163129655Y-33203168D01*
X163299922Y-33143589D01*
X163452662Y-33047616D01*
X163580216Y-32920062D01*
X163676189Y-32767322D01*
X163717233Y-32650024D01*
X163757953Y-32593250D01*
X163822906Y-32567502D01*
X163891468Y-32580958D01*
X163939268Y-32625008D01*
X163969580Y-32673249D01*
X163996984Y-32716862D01*
X164124538Y-32844416D01*
X164204504Y-32894662D01*
X164244386Y-32919722D01*
X164277278Y-32940389D01*
X164346632Y-32964657D01*
X164447545Y-32999968D01*
X164447550Y-32999969D01*
X164626796Y-33020165D01*
X164626800Y-33020165D01*
X164626804Y-33020165D01*
X164806049Y-32999969D01*
X164806052Y-32999968D01*
X164806055Y-32999968D01*
X164976322Y-32940389D01*
X165129062Y-32844416D01*
X165256616Y-32716862D01*
X165352589Y-32564122D01*
X165412168Y-32393855D01*
X165412332Y-32392400D01*
X165432365Y-32214603D01*
X165432365Y-32214596D01*
X166335835Y-32214596D01*
X166335835Y-32214603D01*
X166356030Y-32393849D01*
X166356031Y-32393854D01*
X166415611Y-32564123D01*
X166484180Y-32673249D01*
X166511584Y-32716862D01*
X166639138Y-32844416D01*
X166719104Y-32894662D01*
X166758986Y-32919722D01*
X166791878Y-32940389D01*
X166861232Y-32964657D01*
X166962145Y-32999968D01*
X166962150Y-32999969D01*
X167141396Y-33020165D01*
X167141400Y-33020165D01*
X167141404Y-33020165D01*
X167320649Y-32999969D01*
X167320652Y-32999968D01*
X167320655Y-32999968D01*
X167490922Y-32940389D01*
X167643662Y-32844416D01*
X167771216Y-32716862D01*
X167867189Y-32564122D01*
X167926768Y-32393855D01*
X167926932Y-32392400D01*
X167946965Y-32214603D01*
X167946965Y-32214596D01*
X167926769Y-32035350D01*
X167926768Y-32035345D01*
X167895509Y-31946011D01*
X167867189Y-31865078D01*
X167866627Y-31864184D01*
X167800807Y-31759432D01*
X167771216Y-31712338D01*
X167643662Y-31584784D01*
X167490923Y-31488811D01*
X167320654Y-31429231D01*
X167320649Y-31429230D01*
X167141404Y-31409035D01*
X167141396Y-31409035D01*
X166962150Y-31429230D01*
X166962145Y-31429231D01*
X166791876Y-31488811D01*
X166639137Y-31584784D01*
X166511584Y-31712337D01*
X166415611Y-31865076D01*
X166356031Y-32035345D01*
X166356030Y-32035350D01*
X166335835Y-32214596D01*
X165432365Y-32214596D01*
X165412169Y-32035350D01*
X165412168Y-32035345D01*
X165380909Y-31946011D01*
X165352589Y-31865078D01*
X165352027Y-31864184D01*
X165286207Y-31759432D01*
X165256616Y-31712338D01*
X165129062Y-31584784D01*
X164976323Y-31488811D01*
X164806054Y-31429231D01*
X164806049Y-31429230D01*
X164626804Y-31409035D01*
X164626796Y-31409035D01*
X164447550Y-31429230D01*
X164447545Y-31429231D01*
X164277276Y-31488811D01*
X164124537Y-31584784D01*
X163996984Y-31712337D01*
X163901009Y-31865080D01*
X163859966Y-31982374D01*
X163819245Y-32039150D01*
X163754292Y-32064897D01*
X163685730Y-32051441D01*
X163637931Y-32007391D01*
X163596175Y-31940937D01*
X163580216Y-31915538D01*
X163452662Y-31787984D01*
X163435280Y-31777062D01*
X163299923Y-31692011D01*
X163129654Y-31632431D01*
X163129649Y-31632430D01*
X162950404Y-31612235D01*
X162950396Y-31612235D01*
X162771150Y-31632430D01*
X162771145Y-31632431D01*
X162600876Y-31692011D01*
X162530630Y-31736150D01*
X162463393Y-31755150D01*
X162396558Y-31734782D01*
X162351344Y-31681514D01*
X162342185Y-31650554D01*
X162320109Y-31511173D01*
X162259282Y-31323970D01*
X162169923Y-31148594D01*
X162131384Y-31095550D01*
X162054228Y-30989354D01*
X161915046Y-30850172D01*
X161755805Y-30734476D01*
X161580429Y-30645117D01*
X161393226Y-30584290D01*
X161198822Y-30553500D01*
X161198817Y-30553500D01*
X161001983Y-30553500D01*
X161001978Y-30553500D01*
X160807573Y-30584290D01*
X160620370Y-30645117D01*
X160444994Y-30734476D01*
X160392607Y-30772538D01*
X160285754Y-30850172D01*
X160285752Y-30850174D01*
X160285751Y-30850174D01*
X160146574Y-30989351D01*
X160146574Y-30989352D01*
X160146572Y-30989354D01*
X160096885Y-31057741D01*
X160030876Y-31148594D01*
X159941517Y-31323970D01*
X159880690Y-31511173D01*
X159849900Y-31705577D01*
X156509704Y-31705577D01*
X156373254Y-31657831D01*
X156373249Y-31657830D01*
X156194004Y-31637635D01*
X156193996Y-31637635D01*
X156014750Y-31657830D01*
X156014745Y-31657831D01*
X155844476Y-31717411D01*
X155691737Y-31813384D01*
X155564184Y-31940937D01*
X155468211Y-32093676D01*
X155408631Y-32263945D01*
X155408630Y-32263950D01*
X155388435Y-32443196D01*
X154405904Y-32443196D01*
X154408765Y-32417800D01*
X154408765Y-32417796D01*
X154388569Y-32238550D01*
X154388568Y-32238545D01*
X154373428Y-32195278D01*
X154328989Y-32068278D01*
X154328775Y-32067938D01*
X154233015Y-31915537D01*
X154105462Y-31787984D01*
X153952723Y-31692011D01*
X153782454Y-31632431D01*
X153782449Y-31632430D01*
X153603204Y-31612235D01*
X153603196Y-31612235D01*
X153423950Y-31632430D01*
X153423945Y-31632431D01*
X153253676Y-31692011D01*
X153100937Y-31787984D01*
X152973384Y-31915537D01*
X152877411Y-32068276D01*
X152817831Y-32238545D01*
X152817830Y-32238550D01*
X152797635Y-32417796D01*
X151885579Y-32417796D01*
X151873969Y-32314750D01*
X151873968Y-32314745D01*
X151847304Y-32238545D01*
X151814389Y-32144478D01*
X151789897Y-32105500D01*
X151718415Y-31991737D01*
X151590862Y-31864184D01*
X151438123Y-31768211D01*
X151267854Y-31708631D01*
X151267849Y-31708630D01*
X151088604Y-31688435D01*
X151088596Y-31688435D01*
X150909350Y-31708630D01*
X150909345Y-31708631D01*
X150739076Y-31768211D01*
X150586337Y-31864184D01*
X150458784Y-31991737D01*
X150362811Y-32144476D01*
X150303231Y-32314745D01*
X150303230Y-32314750D01*
X150283035Y-32493996D01*
X149376703Y-32493996D01*
X149359369Y-32340150D01*
X149359368Y-32340145D01*
X149323818Y-32238550D01*
X149299789Y-32169878D01*
X149299575Y-32169538D01*
X149240059Y-32074819D01*
X149203816Y-32017138D01*
X149076262Y-31889584D01*
X149069320Y-31885222D01*
X148923523Y-31793611D01*
X148753254Y-31734031D01*
X148753249Y-31734030D01*
X148574004Y-31713835D01*
X148573996Y-31713835D01*
X148394750Y-31734030D01*
X148394745Y-31734031D01*
X148224476Y-31793611D01*
X148071737Y-31889584D01*
X147944184Y-32017137D01*
X147848211Y-32169876D01*
X147788631Y-32340145D01*
X147788630Y-32340150D01*
X147768435Y-32519396D01*
X146720794Y-32519396D01*
X146717769Y-32492550D01*
X146717768Y-32492545D01*
X146700500Y-32443196D01*
X146658189Y-32322278D01*
X146562216Y-32169538D01*
X146434662Y-32041984D01*
X146395120Y-32017138D01*
X146281923Y-31946011D01*
X146111654Y-31886431D01*
X146111649Y-31886430D01*
X145932404Y-31866235D01*
X145932396Y-31866235D01*
X145753150Y-31886430D01*
X145753145Y-31886431D01*
X145582876Y-31946011D01*
X145430137Y-32041984D01*
X145302584Y-32169537D01*
X145206611Y-32322276D01*
X145147031Y-32492545D01*
X145147030Y-32492550D01*
X145126835Y-32671796D01*
X144005856Y-32671796D01*
X144020165Y-32544803D01*
X144020165Y-32544796D01*
X143999969Y-32365550D01*
X143999968Y-32365545D01*
X143984828Y-32322278D01*
X143940389Y-32195278D01*
X143924215Y-32169538D01*
X143876548Y-32093676D01*
X143844416Y-32042538D01*
X143716862Y-31914984D01*
X143564123Y-31819011D01*
X143393854Y-31759431D01*
X143393849Y-31759430D01*
X143214604Y-31739235D01*
X143214596Y-31739235D01*
X143035350Y-31759430D01*
X143035345Y-31759431D01*
X142865076Y-31819011D01*
X142712337Y-31914984D01*
X142584784Y-32042537D01*
X142488811Y-32195276D01*
X142429231Y-32365545D01*
X142429230Y-32365550D01*
X142409035Y-32544796D01*
X141471580Y-32544796D01*
X141480165Y-32468603D01*
X141480165Y-32468596D01*
X141459969Y-32289350D01*
X141459968Y-32289345D01*
X141433815Y-32214603D01*
X141400389Y-32119078D01*
X141391857Y-32105500D01*
X141304415Y-31966337D01*
X141176862Y-31838784D01*
X141024123Y-31742811D01*
X140853854Y-31683231D01*
X140853849Y-31683230D01*
X140674604Y-31663035D01*
X140674596Y-31663035D01*
X140495350Y-31683230D01*
X140495345Y-31683231D01*
X140325076Y-31742811D01*
X140172337Y-31838784D01*
X140044784Y-31966337D01*
X139948811Y-32119076D01*
X139889231Y-32289345D01*
X139889230Y-32289350D01*
X139869035Y-32468596D01*
X139033180Y-32468596D01*
X139041765Y-32392403D01*
X139041765Y-32392396D01*
X139021569Y-32213150D01*
X139021568Y-32213145D01*
X139006428Y-32169878D01*
X138961989Y-32042878D01*
X138961775Y-32042538D01*
X138875113Y-31904616D01*
X138866016Y-31890138D01*
X138738462Y-31762584D01*
X138726631Y-31755150D01*
X138585723Y-31666611D01*
X138415454Y-31607031D01*
X138415449Y-31607030D01*
X138236204Y-31586835D01*
X138236196Y-31586835D01*
X138056950Y-31607030D01*
X138056945Y-31607031D01*
X137886676Y-31666611D01*
X137733937Y-31762584D01*
X137606384Y-31890137D01*
X137510411Y-32042876D01*
X137450831Y-32213145D01*
X137450830Y-32213150D01*
X137430635Y-32392396D01*
X136204067Y-32392396D01*
X136259284Y-32284025D01*
X136320109Y-32096826D01*
X136327297Y-32051441D01*
X136350900Y-31902422D01*
X136350900Y-31705577D01*
X136320109Y-31511173D01*
X136259282Y-31323970D01*
X136169923Y-31148594D01*
X136131384Y-31095550D01*
X136054228Y-30989354D01*
X135915046Y-30850172D01*
X135755805Y-30734476D01*
X135580429Y-30645117D01*
X135393226Y-30584290D01*
X135198822Y-30553500D01*
X135198817Y-30553500D01*
X135001983Y-30553500D01*
X135001978Y-30553500D01*
X134807573Y-30584290D01*
X134620370Y-30645117D01*
X134444994Y-30734476D01*
X134392607Y-30772538D01*
X134285754Y-30850172D01*
X134285752Y-30850174D01*
X134285751Y-30850174D01*
X134146574Y-30989351D01*
X134146574Y-30989352D01*
X134146572Y-30989354D01*
X134096885Y-31057741D01*
X134030876Y-31148594D01*
X133941517Y-31323970D01*
X133880690Y-31511173D01*
X133849900Y-31705577D01*
X132281533Y-31705577D01*
X132332589Y-31624322D01*
X132392168Y-31454055D01*
X132394965Y-31429230D01*
X132412365Y-31274803D01*
X132412365Y-31274796D01*
X132392169Y-31095550D01*
X132392168Y-31095545D01*
X132332588Y-30925276D01*
X132236615Y-30772537D01*
X132109062Y-30644984D01*
X131956323Y-30549011D01*
X131786054Y-30489431D01*
X131786049Y-30489430D01*
X131606804Y-30469235D01*
X131606796Y-30469235D01*
X131427550Y-30489430D01*
X131427545Y-30489431D01*
X131257276Y-30549011D01*
X131104537Y-30644984D01*
X130976984Y-30772537D01*
X130881010Y-30925278D01*
X130821430Y-31095550D01*
X130811637Y-31182468D01*
X130784570Y-31246882D01*
X130776098Y-31256265D01*
X129781286Y-32251078D01*
X129669481Y-32362882D01*
X129669479Y-32362885D01*
X129637776Y-32417798D01*
X129637775Y-32417800D01*
X129590423Y-32499814D01*
X129590423Y-32499815D01*
X129549499Y-32652543D01*
X129549499Y-32652545D01*
X129549499Y-32820646D01*
X129549500Y-32820659D01*
X129549500Y-38389903D01*
X129529815Y-38456942D01*
X129513181Y-38477584D01*
X128818384Y-39172381D01*
X128757061Y-39205866D01*
X128730703Y-39208700D01*
X124543812Y-39208700D01*
X124476773Y-39189015D01*
X124466497Y-39181645D01*
X124463663Y-39179385D01*
X124463662Y-39179384D01*
X124406896Y-39143715D01*
X124310923Y-39083411D01*
X124140654Y-39023831D01*
X124140649Y-39023830D01*
X123961404Y-39003635D01*
X123961396Y-39003635D01*
X123782150Y-39023830D01*
X123782145Y-39023831D01*
X123611876Y-39083411D01*
X123459137Y-39179384D01*
X123331584Y-39306937D01*
X123235611Y-39459676D01*
X123176031Y-39629945D01*
X123176030Y-39629950D01*
X123155835Y-39809196D01*
X119279388Y-39809196D01*
X119293263Y-39773051D01*
X119388215Y-39418686D01*
X119388215Y-39418684D01*
X119445602Y-39056353D01*
X119464803Y-38690000D01*
X119464803Y-38689999D01*
X119445602Y-38323646D01*
X119388215Y-37961315D01*
X119388215Y-37961313D01*
X119293263Y-37606948D01*
X119161795Y-37264464D01*
X118995245Y-36937594D01*
X118795446Y-36629929D01*
X118606701Y-36396850D01*
X117182658Y-37820893D01*
X117104136Y-37712816D01*
X116937184Y-37545864D01*
X116829106Y-37467340D01*
X118253149Y-36043297D01*
X118020070Y-35854553D01*
X117712406Y-35654754D01*
X117385535Y-35488204D01*
X117043051Y-35356736D01*
X116688685Y-35261784D01*
X116326353Y-35204397D01*
X115960001Y-35185197D01*
X115959999Y-35185197D01*
X115593646Y-35204397D01*
X115231315Y-35261784D01*
X115231313Y-35261784D01*
X114876948Y-35356736D01*
X114534464Y-35488204D01*
X114207594Y-35654754D01*
X113899924Y-35854557D01*
X113666849Y-36043296D01*
X113666849Y-36043297D01*
X115090893Y-37467341D01*
X114982816Y-37545864D01*
X114815864Y-37712816D01*
X114737341Y-37820893D01*
X113313297Y-36396849D01*
X113313296Y-36396849D01*
X113124557Y-36629924D01*
X112971095Y-36866235D01*
X112918074Y-36911738D01*
X112848869Y-36921352D01*
X112785452Y-36892025D01*
X112747958Y-36833068D01*
X112743100Y-36798700D01*
X112743100Y-26801299D01*
X112762785Y-26734260D01*
X112815589Y-26688505D01*
X112884747Y-26678561D01*
X112948303Y-26707586D01*
X112971095Y-26733764D01*
X113124553Y-26970070D01*
X113313297Y-27203148D01*
X114737340Y-25779105D01*
X114815864Y-25887184D01*
X114982816Y-26054136D01*
X115090893Y-26132658D01*
X113666850Y-27556701D01*
X113899929Y-27745446D01*
X114207593Y-27945245D01*
X114534464Y-28111795D01*
X114876948Y-28243263D01*
X115231314Y-28338215D01*
X115593646Y-28395602D01*
X115959999Y-28414803D01*
X115960001Y-28414803D01*
X116326353Y-28395602D01*
X116688684Y-28338215D01*
X116688686Y-28338215D01*
X117043051Y-28243263D01*
X117385535Y-28111795D01*
X117712406Y-27945245D01*
X118020064Y-27745450D01*
X118253148Y-27556701D01*
X116829106Y-26132659D01*
X116937184Y-26054136D01*
X117104136Y-25887184D01*
X117182659Y-25779106D01*
X118606701Y-27203148D01*
X118795450Y-26970064D01*
X118995245Y-26662406D01*
X119161795Y-26335535D01*
X119293263Y-25993051D01*
X119388215Y-25638686D01*
X119388215Y-25638684D01*
X119445602Y-25276353D01*
X119464803Y-24910000D01*
X119464803Y-24909999D01*
X119445602Y-24543646D01*
X119388215Y-24181315D01*
X119388215Y-24181313D01*
X119387862Y-24179996D01*
X119864435Y-24179996D01*
X119864435Y-24180003D01*
X119884630Y-24359249D01*
X119884631Y-24359254D01*
X119944211Y-24529523D01*
X120018298Y-24647431D01*
X120040184Y-24682262D01*
X120167738Y-24809816D01*
X120200553Y-24830435D01*
X120315566Y-24902703D01*
X120320478Y-24905789D01*
X120490745Y-24965368D01*
X120534635Y-24970313D01*
X120599048Y-24997378D01*
X120608433Y-25005852D01*
X122589987Y-26987407D01*
X122589991Y-26987410D01*
X122692760Y-27056079D01*
X122692773Y-27056086D01*
X122806960Y-27103383D01*
X122806965Y-27103385D01*
X122806969Y-27103385D01*
X122806970Y-27103386D01*
X122928193Y-27127500D01*
X122928196Y-27127500D01*
X170541804Y-27127500D01*
X170541805Y-27127499D01*
X170663035Y-27103386D01*
X170743784Y-27069937D01*
X170777233Y-27056083D01*
X170880008Y-26987411D01*
X170967411Y-26900008D01*
X171714013Y-26153405D01*
X171735718Y-26136096D01*
X171852659Y-26062618D01*
X171852659Y-26062617D01*
X171852662Y-26062616D01*
X171980216Y-25935062D01*
X172076189Y-25782322D01*
X172135768Y-25612055D01*
X172135932Y-25610600D01*
X172155965Y-25432803D01*
X172155965Y-25432796D01*
X172135769Y-25253550D01*
X172135768Y-25253545D01*
X172120628Y-25210278D01*
X172076189Y-25083278D01*
X172075975Y-25082938D01*
X172022214Y-24997378D01*
X171980216Y-24930538D01*
X171852662Y-24802984D01*
X171835097Y-24791947D01*
X171699923Y-24707011D01*
X171529654Y-24647431D01*
X171529649Y-24647430D01*
X171350404Y-24627235D01*
X171350396Y-24627235D01*
X171171150Y-24647430D01*
X171171145Y-24647431D01*
X171000876Y-24707011D01*
X170848137Y-24802984D01*
X170720584Y-24930537D01*
X170624606Y-25083285D01*
X170623443Y-25085700D01*
X170622278Y-25086989D01*
X170620906Y-25089174D01*
X170620523Y-25088933D01*
X170576615Y-25137556D01*
X170509186Y-25155862D01*
X170442565Y-25134807D01*
X170424047Y-25119569D01*
X170361462Y-25056984D01*
X170208723Y-24961011D01*
X170038454Y-24901431D01*
X170038449Y-24901430D01*
X169859204Y-24881235D01*
X169859196Y-24881235D01*
X169679950Y-24901430D01*
X169679945Y-24901431D01*
X169509676Y-24961011D01*
X169356937Y-25056984D01*
X169224460Y-25189462D01*
X169222925Y-25187927D01*
X169174250Y-25222074D01*
X169104438Y-25224907D01*
X169044177Y-25189546D01*
X169029527Y-25170583D01*
X169008775Y-25137556D01*
X168990416Y-25108338D01*
X168862862Y-24980784D01*
X168838326Y-24965367D01*
X168710123Y-24884811D01*
X168539854Y-24825231D01*
X168539849Y-24825230D01*
X168360604Y-24805035D01*
X168360596Y-24805035D01*
X168181350Y-24825230D01*
X168181345Y-24825231D01*
X168011076Y-24884811D01*
X167858337Y-24980784D01*
X167730784Y-25108337D01*
X167634811Y-25261076D01*
X167575231Y-25431345D01*
X167575230Y-25431350D01*
X167555035Y-25610596D01*
X167555035Y-25610602D01*
X167569008Y-25734616D01*
X167556954Y-25803438D01*
X167509605Y-25854818D01*
X167445788Y-25872500D01*
X166252812Y-25872500D01*
X166185773Y-25852815D01*
X166140018Y-25800011D01*
X166129592Y-25734616D01*
X166143565Y-25610602D01*
X166143565Y-25610596D01*
X166123369Y-25431350D01*
X166123368Y-25431345D01*
X166105592Y-25380545D01*
X166063789Y-25261078D01*
X165967816Y-25108338D01*
X165840262Y-24980784D01*
X165815726Y-24965367D01*
X165687523Y-24884811D01*
X165517254Y-24825231D01*
X165517249Y-24825230D01*
X165338004Y-24805035D01*
X165337996Y-24805035D01*
X165158750Y-24825230D01*
X165158745Y-24825231D01*
X164988476Y-24884811D01*
X164835737Y-24980784D01*
X164708184Y-25108337D01*
X164612211Y-25261076D01*
X164552631Y-25431345D01*
X164552630Y-25431350D01*
X164532435Y-25610596D01*
X164532435Y-25610602D01*
X164546408Y-25734616D01*
X164534354Y-25803438D01*
X164487005Y-25854818D01*
X164423188Y-25872500D01*
X163255612Y-25872500D01*
X163188573Y-25852815D01*
X163142818Y-25800011D01*
X163132392Y-25734616D01*
X163146365Y-25610602D01*
X163146365Y-25610596D01*
X163126169Y-25431350D01*
X163126168Y-25431345D01*
X163108392Y-25380545D01*
X163066589Y-25261078D01*
X162970616Y-25108338D01*
X162843062Y-24980784D01*
X162818526Y-24965367D01*
X162690323Y-24884811D01*
X162520054Y-24825231D01*
X162520049Y-24825230D01*
X162340804Y-24805035D01*
X162340796Y-24805035D01*
X162161550Y-24825230D01*
X162161545Y-24825231D01*
X161991276Y-24884811D01*
X161838537Y-24980784D01*
X161710984Y-25108337D01*
X161615011Y-25261076D01*
X161555431Y-25431345D01*
X161555430Y-25431350D01*
X161535235Y-25610596D01*
X161535235Y-25610602D01*
X161549208Y-25734616D01*
X161537154Y-25803438D01*
X161489805Y-25854818D01*
X161425988Y-25872500D01*
X160261274Y-25872500D01*
X160194235Y-25852815D01*
X160148480Y-25800011D01*
X160138054Y-25734616D01*
X160149165Y-25636002D01*
X160149165Y-25635996D01*
X160128969Y-25456750D01*
X160128968Y-25456745D01*
X160093418Y-25355150D01*
X160069389Y-25286478D01*
X159973416Y-25133738D01*
X159845862Y-25006184D01*
X159780904Y-24965368D01*
X159693123Y-24910211D01*
X159522854Y-24850631D01*
X159522849Y-24850630D01*
X159343604Y-24830435D01*
X159343596Y-24830435D01*
X159164350Y-24850630D01*
X159164345Y-24850631D01*
X158994076Y-24910211D01*
X158841337Y-25006184D01*
X158713784Y-25133737D01*
X158617811Y-25286476D01*
X158558231Y-25456745D01*
X158558230Y-25456750D01*
X158538035Y-25635996D01*
X158538035Y-25636002D01*
X158549146Y-25734616D01*
X158537092Y-25803438D01*
X158489742Y-25854818D01*
X158425926Y-25872500D01*
X157269798Y-25872500D01*
X157202759Y-25852815D01*
X157157004Y-25800011D01*
X157146578Y-25734617D01*
X157151965Y-25686803D01*
X157151965Y-25686796D01*
X157131769Y-25507550D01*
X157131768Y-25507545D01*
X157105615Y-25432803D01*
X157072189Y-25337278D01*
X157047266Y-25297614D01*
X157008348Y-25235676D01*
X156976216Y-25184538D01*
X156848662Y-25056984D01*
X156809120Y-25032138D01*
X156695923Y-24961011D01*
X156525654Y-24901431D01*
X156525649Y-24901430D01*
X156346404Y-24881235D01*
X156346396Y-24881235D01*
X156167150Y-24901430D01*
X156167145Y-24901431D01*
X155996876Y-24961011D01*
X155844137Y-25056984D01*
X155716584Y-25184537D01*
X155620611Y-25337276D01*
X155561031Y-25507545D01*
X155561030Y-25507550D01*
X155540835Y-25686796D01*
X155540835Y-25686803D01*
X155546222Y-25734617D01*
X155534167Y-25803439D01*
X155486818Y-25854818D01*
X155423002Y-25872500D01*
X154286551Y-25872500D01*
X154219512Y-25852815D01*
X154173757Y-25800011D01*
X154163331Y-25734617D01*
X154180165Y-25585204D01*
X154180165Y-25585196D01*
X154159969Y-25405950D01*
X154159968Y-25405945D01*
X154122061Y-25297614D01*
X154100389Y-25235678D01*
X154087882Y-25215774D01*
X154035419Y-25132279D01*
X154004416Y-25082938D01*
X153876862Y-24955384D01*
X153837320Y-24930538D01*
X153724123Y-24859411D01*
X153553854Y-24799831D01*
X153553849Y-24799830D01*
X153374604Y-24779635D01*
X153374596Y-24779635D01*
X153195350Y-24799830D01*
X153195345Y-24799831D01*
X153025076Y-24859411D01*
X152872337Y-24955384D01*
X152744784Y-25082937D01*
X152648811Y-25235676D01*
X152589231Y-25405945D01*
X152589230Y-25405950D01*
X152569035Y-25585196D01*
X152569035Y-25585204D01*
X152585869Y-25734617D01*
X152573814Y-25803439D01*
X152526465Y-25854818D01*
X152462649Y-25872500D01*
X151263951Y-25872500D01*
X151196912Y-25852815D01*
X151151157Y-25800011D01*
X151140731Y-25734617D01*
X151157565Y-25585204D01*
X151157565Y-25585196D01*
X151137369Y-25405950D01*
X151137368Y-25405945D01*
X151099461Y-25297614D01*
X151077789Y-25235678D01*
X151065282Y-25215774D01*
X151012819Y-25132279D01*
X150981816Y-25082938D01*
X150854262Y-24955384D01*
X150814720Y-24930538D01*
X150701523Y-24859411D01*
X150531254Y-24799831D01*
X150531249Y-24799830D01*
X150352004Y-24779635D01*
X150351996Y-24779635D01*
X150172750Y-24799830D01*
X150172745Y-24799831D01*
X150002476Y-24859411D01*
X149849737Y-24955384D01*
X149722184Y-25082937D01*
X149626211Y-25235676D01*
X149566631Y-25405945D01*
X149566630Y-25405950D01*
X149546435Y-25585196D01*
X149546435Y-25585204D01*
X149563269Y-25734617D01*
X149551214Y-25803439D01*
X149503865Y-25854818D01*
X149440049Y-25872500D01*
X148263889Y-25872500D01*
X148196850Y-25852815D01*
X148151095Y-25800011D01*
X148140669Y-25734617D01*
X148160365Y-25559803D01*
X148160365Y-25559796D01*
X148140169Y-25380550D01*
X148140168Y-25380545D01*
X148125028Y-25337278D01*
X148080589Y-25210278D01*
X148067509Y-25189462D01*
X148000794Y-25083285D01*
X147984616Y-25057538D01*
X147857062Y-24929984D01*
X147704323Y-24834011D01*
X147534054Y-24774431D01*
X147534049Y-24774430D01*
X147354804Y-24754235D01*
X147354796Y-24754235D01*
X147175550Y-24774430D01*
X147175545Y-24774431D01*
X147005276Y-24834011D01*
X146852537Y-24929984D01*
X146724984Y-25057537D01*
X146629011Y-25210276D01*
X146569431Y-25380545D01*
X146569430Y-25380550D01*
X146549235Y-25559796D01*
X146549235Y-25559803D01*
X146568931Y-25734617D01*
X146556876Y-25803439D01*
X146509527Y-25854818D01*
X146445711Y-25872500D01*
X145253260Y-25872500D01*
X145186221Y-25852815D01*
X145140466Y-25800011D01*
X145130522Y-25730853D01*
X145136219Y-25707545D01*
X145142966Y-25688262D01*
X145142969Y-25688249D01*
X145163165Y-25509003D01*
X145163165Y-25508996D01*
X145142969Y-25329750D01*
X145142968Y-25329745D01*
X145127828Y-25286478D01*
X145083389Y-25159478D01*
X145069614Y-25137556D01*
X145003375Y-25032137D01*
X144987416Y-25006738D01*
X144859862Y-24879184D01*
X144828433Y-24859436D01*
X144707123Y-24783211D01*
X144536854Y-24723631D01*
X144536849Y-24723630D01*
X144357604Y-24703435D01*
X144357596Y-24703435D01*
X144178350Y-24723630D01*
X144178345Y-24723631D01*
X144008076Y-24783211D01*
X143855337Y-24879184D01*
X143727784Y-25006737D01*
X143631811Y-25159476D01*
X143572231Y-25329745D01*
X143572230Y-25329750D01*
X143552035Y-25508996D01*
X143552035Y-25509003D01*
X143572230Y-25688249D01*
X143572233Y-25688262D01*
X143578981Y-25707545D01*
X143582543Y-25777324D01*
X143547815Y-25837951D01*
X143485822Y-25870179D01*
X143461940Y-25872500D01*
X142269489Y-25872500D01*
X142202450Y-25852815D01*
X142156695Y-25800011D01*
X142146269Y-25734617D01*
X142165965Y-25559803D01*
X142165965Y-25559796D01*
X142145769Y-25380550D01*
X142145768Y-25380545D01*
X142130628Y-25337278D01*
X142086189Y-25210278D01*
X142073109Y-25189462D01*
X142006394Y-25083285D01*
X141990216Y-25057538D01*
X141862662Y-24929984D01*
X141709923Y-24834011D01*
X141539654Y-24774431D01*
X141539649Y-24774430D01*
X141360404Y-24754235D01*
X141360396Y-24754235D01*
X141181150Y-24774430D01*
X141181145Y-24774431D01*
X141010876Y-24834011D01*
X140858137Y-24929984D01*
X140730584Y-25057537D01*
X140634611Y-25210276D01*
X140575031Y-25380545D01*
X140575030Y-25380550D01*
X140554835Y-25559796D01*
X140554835Y-25559803D01*
X140574531Y-25734617D01*
X140562476Y-25803439D01*
X140515127Y-25854818D01*
X140451311Y-25872500D01*
X139267748Y-25872500D01*
X139200709Y-25852815D01*
X139154954Y-25800011D01*
X139145010Y-25730853D01*
X139147525Y-25720562D01*
X139147018Y-25720447D01*
X139148569Y-25713649D01*
X139168765Y-25534403D01*
X139168765Y-25534396D01*
X139148569Y-25355150D01*
X139148568Y-25355145D01*
X139116944Y-25264768D01*
X139088989Y-25184878D01*
X139088775Y-25184538D01*
X138993015Y-25032137D01*
X138865462Y-24904584D01*
X138712723Y-24808611D01*
X138542454Y-24749031D01*
X138542449Y-24749030D01*
X138363204Y-24728835D01*
X138363196Y-24728835D01*
X138183950Y-24749030D01*
X138183945Y-24749031D01*
X138013676Y-24808611D01*
X137860937Y-24904584D01*
X137733384Y-25032137D01*
X137637411Y-25184876D01*
X137577831Y-25355145D01*
X137577830Y-25355150D01*
X137557635Y-25534396D01*
X137557635Y-25534403D01*
X137577830Y-25713649D01*
X137579382Y-25720447D01*
X137576387Y-25721130D01*
X137579255Y-25777327D01*
X137544525Y-25837953D01*
X137482530Y-25870179D01*
X137458652Y-25872500D01*
X136245148Y-25872500D01*
X136178109Y-25852815D01*
X136132354Y-25800011D01*
X136122410Y-25730853D01*
X136124925Y-25720562D01*
X136124418Y-25720447D01*
X136125969Y-25713649D01*
X136146165Y-25534403D01*
X136146165Y-25534396D01*
X136125969Y-25355150D01*
X136125968Y-25355145D01*
X136094344Y-25264768D01*
X136066389Y-25184878D01*
X136066175Y-25184538D01*
X135970415Y-25032137D01*
X135842862Y-24904584D01*
X135690123Y-24808611D01*
X135519854Y-24749031D01*
X135519849Y-24749030D01*
X135340604Y-24728835D01*
X135340596Y-24728835D01*
X135161350Y-24749030D01*
X135161345Y-24749031D01*
X134991076Y-24808611D01*
X134838337Y-24904584D01*
X134710784Y-25032137D01*
X134614811Y-25184876D01*
X134555231Y-25355145D01*
X134555230Y-25355150D01*
X134535035Y-25534396D01*
X134535035Y-25534403D01*
X134555230Y-25713649D01*
X134556782Y-25720447D01*
X134553787Y-25721130D01*
X134556655Y-25777327D01*
X134521925Y-25837953D01*
X134459930Y-25870179D01*
X134436052Y-25872500D01*
X133254948Y-25872500D01*
X133187909Y-25852815D01*
X133142154Y-25800011D01*
X133132210Y-25730853D01*
X133134725Y-25720562D01*
X133134218Y-25720447D01*
X133135769Y-25713649D01*
X133155965Y-25534403D01*
X133155965Y-25534396D01*
X133135769Y-25355150D01*
X133135768Y-25355145D01*
X133104144Y-25264768D01*
X133076189Y-25184878D01*
X133075975Y-25184538D01*
X132980215Y-25032137D01*
X132852662Y-24904584D01*
X132699923Y-24808611D01*
X132529654Y-24749031D01*
X132529649Y-24749030D01*
X132350404Y-24728835D01*
X132350396Y-24728835D01*
X132171150Y-24749030D01*
X132171145Y-24749031D01*
X132000876Y-24808611D01*
X131848137Y-24904584D01*
X131720584Y-25032137D01*
X131624611Y-25184876D01*
X131565031Y-25355145D01*
X131565030Y-25355150D01*
X131544835Y-25534396D01*
X131544835Y-25534403D01*
X131565030Y-25713649D01*
X131566582Y-25720447D01*
X131563587Y-25721130D01*
X131566455Y-25777327D01*
X131531725Y-25837953D01*
X131469730Y-25870179D01*
X131445852Y-25872500D01*
X130255289Y-25872500D01*
X130188250Y-25852815D01*
X130142495Y-25800011D01*
X130132069Y-25734617D01*
X130151765Y-25559803D01*
X130151765Y-25559796D01*
X130131569Y-25380550D01*
X130131568Y-25380545D01*
X130116428Y-25337278D01*
X130071989Y-25210278D01*
X130058909Y-25189462D01*
X129992194Y-25083285D01*
X129976016Y-25057538D01*
X129848462Y-24929984D01*
X129695723Y-24834011D01*
X129525454Y-24774431D01*
X129525449Y-24774430D01*
X129346204Y-24754235D01*
X129346196Y-24754235D01*
X129166950Y-24774430D01*
X129166945Y-24774431D01*
X128996676Y-24834011D01*
X128843937Y-24929984D01*
X128716383Y-25057538D01*
X128709870Y-25067904D01*
X128657533Y-25114193D01*
X128588479Y-25124838D01*
X128524632Y-25096460D01*
X128499884Y-25067896D01*
X128494099Y-25058689D01*
X128475100Y-24992728D01*
X128475100Y-24875796D01*
X128475099Y-24875795D01*
X128464022Y-24820104D01*
X128450986Y-24754566D01*
X128406007Y-24645979D01*
X128404363Y-24641384D01*
X128335014Y-24537596D01*
X128335013Y-24537594D01*
X128326941Y-24529522D01*
X128247608Y-24450189D01*
X127867419Y-24070000D01*
X127380013Y-23582593D01*
X127380009Y-23582590D01*
X127380008Y-23582589D01*
X127357132Y-23567304D01*
X127357130Y-23567302D01*
X127277239Y-23513920D01*
X127277226Y-23513913D01*
X127243785Y-23500062D01*
X127163035Y-23466614D01*
X127163027Y-23466612D01*
X127041807Y-23442500D01*
X127041803Y-23442500D01*
X122921672Y-23442500D01*
X122855700Y-23423494D01*
X122729523Y-23344211D01*
X122559254Y-23284631D01*
X122559249Y-23284630D01*
X122380004Y-23264435D01*
X122379996Y-23264435D01*
X122200750Y-23284630D01*
X122200745Y-23284631D01*
X122030476Y-23344211D01*
X121877737Y-23440184D01*
X121750184Y-23567737D01*
X121654209Y-23720480D01*
X121622039Y-23812416D01*
X121581317Y-23869192D01*
X121516365Y-23894939D01*
X121447803Y-23881483D01*
X121400292Y-23835872D01*
X121399494Y-23836374D01*
X121397484Y-23833176D01*
X121397400Y-23833095D01*
X121397226Y-23832764D01*
X121299815Y-23677737D01*
X121172262Y-23550184D01*
X121019523Y-23454211D01*
X120849254Y-23394631D01*
X120849249Y-23394630D01*
X120670004Y-23374435D01*
X120669996Y-23374435D01*
X120490750Y-23394630D01*
X120490745Y-23394631D01*
X120320476Y-23454211D01*
X120167737Y-23550184D01*
X120040184Y-23677737D01*
X119944211Y-23830476D01*
X119884631Y-24000745D01*
X119884630Y-24000750D01*
X119864435Y-24179996D01*
X119387862Y-24179996D01*
X119293263Y-23826948D01*
X119161795Y-23484464D01*
X118995245Y-23157594D01*
X118795446Y-22849929D01*
X118606701Y-22616850D01*
X117182658Y-24040893D01*
X117104136Y-23932816D01*
X116937184Y-23765864D01*
X116829106Y-23687340D01*
X118253149Y-22263297D01*
X118164198Y-22191266D01*
X118124487Y-22133779D01*
X118122159Y-22063948D01*
X118157954Y-22003944D01*
X118220508Y-21972818D01*
X118242234Y-21970900D01*
X118332908Y-21970900D01*
X177768908Y-21970900D01*
X177869365Y-21970900D01*
X177936404Y-21990585D01*
G37*
G04 #@! TD.AperFunction*
G04 #@! TA.AperFunction,Conductor*
G36*
X113744804Y-21990585D02*
G01*
X113790559Y-22043389D01*
X113800503Y-22112547D01*
X113771478Y-22176103D01*
X113755800Y-22191266D01*
X113666849Y-22263296D01*
X113666849Y-22263297D01*
X115090893Y-23687341D01*
X114982816Y-23765864D01*
X114815864Y-23932816D01*
X114737341Y-24040893D01*
X113313297Y-22616849D01*
X113313296Y-22616849D01*
X113124557Y-22849924D01*
X112971095Y-23086235D01*
X112918074Y-23131738D01*
X112848869Y-23141352D01*
X112785452Y-23112025D01*
X112747958Y-23053068D01*
X112743100Y-23018700D01*
X112743100Y-22094900D01*
X112762785Y-22027861D01*
X112815589Y-21982106D01*
X112867100Y-21970900D01*
X113677765Y-21970900D01*
X113744804Y-21990585D01*
G37*
G04 #@! TD.AperFunction*
G04 #@! TA.AperFunction,Conductor*
G36*
X183389339Y-21990585D02*
G01*
X183435094Y-22043389D01*
X183446300Y-22094900D01*
X183446300Y-23150304D01*
X183426615Y-23217343D01*
X183373811Y-23263098D01*
X183304653Y-23273042D01*
X183241097Y-23244017D01*
X183211815Y-23206599D01*
X183186845Y-23157594D01*
X182987046Y-22849929D01*
X182798301Y-22616850D01*
X181374258Y-24040893D01*
X181295736Y-23932816D01*
X181128784Y-23765864D01*
X181020706Y-23687340D01*
X182444749Y-22263297D01*
X182355798Y-22191266D01*
X182316087Y-22133779D01*
X182313759Y-22063948D01*
X182349554Y-22003944D01*
X182412108Y-21972818D01*
X182433834Y-21970900D01*
X183322300Y-21970900D01*
X183389339Y-21990585D01*
G37*
G04 #@! TD.AperFunction*
G04 #@! TD*
D15*
X118398800Y-21470400D02*
X112242600Y-21470400D01*
X124444000Y-46616400D02*
X124317000Y-46616400D01*
X177834800Y-46616400D02*
X172069000Y-46616400D01*
X177834800Y-46616400D02*
X183946800Y-46616400D01*
X118398800Y-21470400D02*
X177834800Y-21470400D01*
X118398800Y-46616400D02*
X124317000Y-46616400D01*
X177834800Y-21470400D02*
X183946800Y-21470400D01*
X124444000Y-46616400D02*
X172069000Y-46616400D01*
X183946800Y-21470400D02*
X183946800Y-46616400D01*
X118398800Y-46616400D02*
X112242600Y-46616400D01*
X112242600Y-21470400D02*
X112242600Y-46616400D01*
M02*
