M48
; DRILL file {KiCad 8.0.4} date 2024-11-02T15:19:09-0500
; FORMAT={-:-/ absolute / inch / decimal}
; #@! TF.CreationDate,2024-11-02T15:19:09-05:00
; #@! TF.GenerationSoftware,Kicad,Pcbnew,8.0.4
; #@! TF.FileFunction,MixedPlating,1,4
FMAT,2
INCH
; #@! TA.AperFunction,Plated,PTH,ViaDrill
T1C0.0118
; #@! TA.AperFunction,Plated,PTH,ComponentDrill
T2C0.0197
; #@! TA.AperFunction,Plated,PTH,ComponentDrill
T3C0.1181
; #@! TA.AperFunction,NonPlated,NPTH,ComponentDrill
T4C0.0787
%
G90
G05
T1
X4.7004Y-1.0703
X4.7004Y-1.7703
X4.7508Y-0.952
X4.8181Y-0.9476
X4.8804Y-1.5673
X4.9151Y-1.0053
X4.9754Y-1.0053
X4.9814Y-1.4323
X4.9815Y-1.2465
X5.0334Y-1.0053
X5.0924Y-1.0063
X5.1814Y-1.2313
X5.2106Y-1.0053
X5.3284Y-1.0053
X5.3404Y-1.3503
X5.3514Y-1.6403
X5.4424Y-1.2753
X5.4474Y-1.0053
X5.5384Y-1.2783
X5.5654Y-1.0063
X5.6384Y-1.2813
X5.6834Y-1.0043
X5.7454Y-1.2863
X5.8014Y-1.0063
X5.8494Y-1.2803
X5.9194Y-1.0073
X5.9484Y-1.2793
X6.0384Y-1.0073
X6.0474Y-1.2763
X6.1494Y-1.2773
X6.1554Y-1.0113
X6.2454Y-1.2823
X6.2734Y-1.0093
X6.3764Y-1.6403
X6.3914Y-1.0083
X6.4154Y-1.2763
X6.4814Y-1.2683
X6.5094Y-1.0083
X6.5804Y-1.2683
X6.6284Y-1.0083
X6.6874Y-1.0113
X6.7461Y-1.0013
X6.9319Y-0.9103
X6.9604Y-1.0703
X6.9604Y-1.7703
T2
X4.4768Y-0.9807
X4.4768Y-1.5232
X4.5027Y-0.9181
X4.5027Y-1.0433
X4.5027Y-1.4606
X4.5027Y-1.5859
X4.5654Y-0.8921
X4.5654Y-1.0693
X4.5654Y-1.4346
X4.5654Y-1.6118
X4.628Y-0.9181
X4.628Y-1.0433
X4.628Y-1.4606
X4.628Y-1.5859
X4.6539Y-0.9807
X4.6539Y-1.5232
X7.004Y-0.9807
X7.004Y-1.5232
X7.0299Y-0.9181
X7.0299Y-1.0433
X7.0299Y-1.4606
X7.0299Y-1.5859
X7.0926Y-0.8921
X7.0926Y-1.0693
X7.0926Y-1.4346
X7.0926Y-1.6118
X7.1552Y-0.9181
X7.1552Y-1.0433
X7.1552Y-1.4606
X7.1552Y-1.5859
X7.1812Y-0.9807
X7.1812Y-1.5232
T3
X4.5654Y-0.9807
X4.5654Y-1.5232
X7.0926Y-0.9807
X7.0926Y-1.5232
T4
X5.3189Y-1.2521
X6.3425Y-1.2521
M30
