G04 #@! TF.GenerationSoftware,KiCad,Pcbnew,8.0.4*
G04 #@! TF.CreationDate,2024-11-02T15:19:06-05:00*
G04 #@! TF.ProjectId,megaduck,6d656761-6475-4636-9b2e-6b696361645f,v1.0*
G04 #@! TF.SameCoordinates,Original*
G04 #@! TF.FileFunction,Soldermask,Bot*
G04 #@! TF.FilePolarity,Negative*
%FSLAX46Y46*%
G04 Gerber Fmt 4.6, Leading zero omitted, Abs format (unit mm)*
G04 Created by KiCad (PCBNEW 8.0.4) date 2024-11-02 15:19:06*
%MOMM*%
%LPD*%
G01*
G04 APERTURE LIST*
%ADD10R,1.000000X1.500000*%
%ADD11R,1.000000X3.000000*%
%ADD12C,0.800000*%
%ADD13C,6.000000*%
%ADD14C,2.000000*%
G04 #@! TA.AperFunction,Profile*
%ADD15C,0.050000*%
G04 #@! TD*
G04 APERTURE END LIST*
D10*
G04 #@! TO.C,JP1*
X122640600Y-39783800D03*
X121340600Y-39783800D03*
G04 #@! TD*
D11*
G04 #@! TO.C,J3*
X172246800Y-29262800D03*
X172246800Y-34302800D03*
X169706800Y-29262800D03*
X169706800Y-34302800D03*
X167166800Y-29262800D03*
X167166800Y-34302800D03*
X164626800Y-29262800D03*
X164626800Y-34302800D03*
X162086800Y-29262800D03*
X162086800Y-34302800D03*
X159546800Y-29262800D03*
X159546800Y-34302800D03*
X157006800Y-29262800D03*
X157006800Y-34302800D03*
X154466800Y-29262800D03*
X154466800Y-34302800D03*
X151926800Y-29262800D03*
X151926800Y-34302800D03*
X149386800Y-29262800D03*
X149386800Y-34302800D03*
X146846800Y-29262800D03*
X146846800Y-34302800D03*
X144306800Y-29262800D03*
X144306800Y-34302800D03*
X141766800Y-29262800D03*
X141766800Y-34302800D03*
X139226800Y-29262800D03*
X139226800Y-34302800D03*
X136686800Y-29262800D03*
X136686800Y-34302800D03*
X134146800Y-29262800D03*
X134146800Y-34302800D03*
X131606800Y-29262800D03*
X131606800Y-34302800D03*
X129066800Y-29262800D03*
X129066800Y-34302800D03*
X126526800Y-29262800D03*
X126526800Y-34302800D03*
X123986800Y-29262800D03*
X123986800Y-34302800D03*
G04 #@! TD*
D12*
G04 #@! TO.C,H5*
X177901600Y-24910000D03*
X178560610Y-23319010D03*
X178560610Y-26500990D03*
X180151600Y-22660000D03*
D13*
X180151600Y-24910000D03*
D12*
X180151600Y-27160000D03*
X181742590Y-23319010D03*
X181742590Y-26500990D03*
X182401600Y-24910000D03*
G04 #@! TD*
G04 #@! TO.C,H1*
X113710000Y-24910000D03*
X114369010Y-23319010D03*
X114369010Y-26500990D03*
X115960000Y-22660000D03*
D13*
X115960000Y-24910000D03*
D12*
X115960000Y-27160000D03*
X117550990Y-23319010D03*
X117550990Y-26500990D03*
X118210000Y-24910000D03*
G04 #@! TD*
D14*
G04 #@! TO.C,J3*
X161100400Y-31804000D03*
X135100400Y-31804000D03*
G04 #@! TD*
D12*
G04 #@! TO.C,H2*
X113710000Y-38690000D03*
X114369010Y-37099010D03*
X114369010Y-40280990D03*
X115960000Y-36440000D03*
D13*
X115960000Y-38690000D03*
D12*
X115960000Y-40940000D03*
X117550990Y-37099010D03*
X117550990Y-40280990D03*
X118210000Y-38690000D03*
G04 #@! TD*
G04 #@! TO.C,H6*
X177901600Y-38690000D03*
X178560610Y-37099010D03*
X178560610Y-40280990D03*
X180151600Y-36440000D03*
D13*
X180151600Y-38690000D03*
D12*
X180151600Y-40940000D03*
X181742590Y-37099010D03*
X181742590Y-40280990D03*
X182401600Y-38690000D03*
G04 #@! TD*
D15*
X118398800Y-21470400D02*
X112242600Y-21470400D01*
X124444000Y-46616400D02*
X124317000Y-46616400D01*
X177834800Y-46616400D02*
X172069000Y-46616400D01*
X177834800Y-46616400D02*
X183946800Y-46616400D01*
X118398800Y-21470400D02*
X177834800Y-21470400D01*
X118398800Y-46616400D02*
X124317000Y-46616400D01*
X177834800Y-21470400D02*
X183946800Y-21470400D01*
X124444000Y-46616400D02*
X172069000Y-46616400D01*
X183946800Y-21470400D02*
X183946800Y-46616400D01*
X118398800Y-46616400D02*
X112242600Y-46616400D01*
X112242600Y-21470400D02*
X112242600Y-46616400D01*
M02*
