G04 #@! TF.GenerationSoftware,KiCad,Pcbnew,8.0.4*
G04 #@! TF.CreationDate,2024-11-02T15:19:06-05:00*
G04 #@! TF.ProjectId,megaduck,6d656761-6475-4636-9b2e-6b696361645f,v1.0*
G04 #@! TF.SameCoordinates,Original*
G04 #@! TF.FileFunction,Legend,Top*
G04 #@! TF.FilePolarity,Positive*
%FSLAX46Y46*%
G04 Gerber Fmt 4.6, Leading zero omitted, Abs format (unit mm)*
G04 Created by KiCad (PCBNEW 8.0.4) date 2024-11-02 15:19:06*
%MOMM*%
%LPD*%
G01*
G04 APERTURE LIST*
%ADD10C,0.150000*%
%ADD11C,0.120000*%
G04 #@! TA.AperFunction,Profile*
%ADD12C,0.050000*%
G04 #@! TD*
G04 APERTURE END LIST*
D10*
X122753333Y-23576219D02*
X122420000Y-23100028D01*
X122181905Y-23576219D02*
X122181905Y-22576219D01*
X122181905Y-22576219D02*
X122562857Y-22576219D01*
X122562857Y-22576219D02*
X122658095Y-22623838D01*
X122658095Y-22623838D02*
X122705714Y-22671457D01*
X122705714Y-22671457D02*
X122753333Y-22766695D01*
X122753333Y-22766695D02*
X122753333Y-22909552D01*
X122753333Y-22909552D02*
X122705714Y-23004790D01*
X122705714Y-23004790D02*
X122658095Y-23052409D01*
X122658095Y-23052409D02*
X122562857Y-23100028D01*
X122562857Y-23100028D02*
X122181905Y-23100028D01*
X123705714Y-23576219D02*
X123134286Y-23576219D01*
X123420000Y-23576219D02*
X123420000Y-22576219D01*
X123420000Y-22576219D02*
X123324762Y-22719076D01*
X123324762Y-22719076D02*
X123229524Y-22814314D01*
X123229524Y-22814314D02*
X123134286Y-22861933D01*
X176169533Y-23506380D02*
X176121914Y-23554000D01*
X176121914Y-23554000D02*
X175979057Y-23601619D01*
X175979057Y-23601619D02*
X175883819Y-23601619D01*
X175883819Y-23601619D02*
X175740962Y-23554000D01*
X175740962Y-23554000D02*
X175645724Y-23458761D01*
X175645724Y-23458761D02*
X175598105Y-23363523D01*
X175598105Y-23363523D02*
X175550486Y-23173047D01*
X175550486Y-23173047D02*
X175550486Y-23030190D01*
X175550486Y-23030190D02*
X175598105Y-22839714D01*
X175598105Y-22839714D02*
X175645724Y-22744476D01*
X175645724Y-22744476D02*
X175740962Y-22649238D01*
X175740962Y-22649238D02*
X175883819Y-22601619D01*
X175883819Y-22601619D02*
X175979057Y-22601619D01*
X175979057Y-22601619D02*
X176121914Y-22649238D01*
X176121914Y-22649238D02*
X176169533Y-22696857D01*
X177121914Y-23601619D02*
X176550486Y-23601619D01*
X176836200Y-23601619D02*
X176836200Y-22601619D01*
X176836200Y-22601619D02*
X176740962Y-22744476D01*
X176740962Y-22744476D02*
X176645724Y-22839714D01*
X176645724Y-22839714D02*
X176550486Y-22887333D01*
D11*
G04 #@! TO.C,R1*
X120282942Y-22598900D02*
X120757458Y-22598900D01*
X120282942Y-23643900D02*
X120757458Y-23643900D01*
G04 #@! TO.C,C1*
X173909620Y-22611400D02*
X174190780Y-22611400D01*
X173909620Y-23631400D02*
X174190780Y-23631400D01*
G04 #@! TO.C,J3*
X118800400Y-24554000D02*
X118800400Y-43054000D01*
X118800400Y-24554000D02*
X124100400Y-24554000D01*
X118800400Y-43054000D02*
X131900400Y-43054000D01*
X138300400Y-43054000D02*
X157900400Y-43054000D01*
X164300400Y-43054000D02*
X177300400Y-43054000D01*
X172100400Y-24554000D02*
X172100400Y-22454000D01*
X177300400Y-24554000D02*
X172100400Y-24554000D01*
X177300400Y-24554000D02*
X177300400Y-43054000D01*
G04 #@! TD*
D12*
X118398800Y-21470400D02*
X112242600Y-21470400D01*
X124444000Y-46616400D02*
X124317000Y-46616400D01*
X177834800Y-46616400D02*
X172069000Y-46616400D01*
X177834800Y-46616400D02*
X183946800Y-46616400D01*
X118398800Y-21470400D02*
X177834800Y-21470400D01*
X118398800Y-46616400D02*
X124317000Y-46616400D01*
X177834800Y-21470400D02*
X183946800Y-21470400D01*
X124444000Y-46616400D02*
X172069000Y-46616400D01*
X183946800Y-21470400D02*
X183946800Y-46616400D01*
X118398800Y-46616400D02*
X112242600Y-46616400D01*
X112242600Y-21470400D02*
X112242600Y-46616400D01*
M02*
