G04 #@! TF.GenerationSoftware,KiCad,Pcbnew,8.0.4*
G04 #@! TF.CreationDate,2024-11-02T15:19:06-05:00*
G04 #@! TF.ProjectId,megaduck,6d656761-6475-4636-9b2e-6b696361645f,v1.0*
G04 #@! TF.SameCoordinates,Original*
G04 #@! TF.FileFunction,Copper,L4,Bot*
G04 #@! TF.FilePolarity,Positive*
%FSLAX46Y46*%
G04 Gerber Fmt 4.6, Leading zero omitted, Abs format (unit mm)*
G04 Created by KiCad (PCBNEW 8.0.4) date 2024-11-02 15:19:06*
%MOMM*%
%LPD*%
G01*
G04 APERTURE LIST*
%ADD10C,0.300000*%
G04 #@! TA.AperFunction,NonConductor*
%ADD11C,0.300000*%
G04 #@! TD*
G04 #@! TA.AperFunction,NonConductor*
%ADD12C,0.200000*%
G04 #@! TD*
G04 #@! TA.AperFunction,SMDPad,CuDef*
%ADD13R,1.000000X1.500000*%
G04 #@! TD*
G04 #@! TA.AperFunction,SMDPad,CuDef*
%ADD14R,1.000000X3.000000*%
G04 #@! TD*
G04 #@! TA.AperFunction,ComponentPad*
%ADD15C,0.800000*%
G04 #@! TD*
G04 #@! TA.AperFunction,ComponentPad*
%ADD16C,6.000000*%
G04 #@! TD*
G04 #@! TA.AperFunction,ViaPad*
%ADD17C,0.600000*%
G04 #@! TD*
G04 #@! TA.AperFunction,Conductor*
%ADD18C,0.254000*%
G04 #@! TD*
G04 #@! TA.AperFunction,Conductor*
%ADD19C,0.889000*%
G04 #@! TD*
G04 #@! TA.AperFunction,Conductor*
%ADD20C,0.200000*%
G04 #@! TD*
G04 #@! TA.AperFunction,Profile*
%ADD21C,0.050000*%
G04 #@! TD*
G04 APERTURE END LIST*
D10*
D11*
X125110787Y-20557489D02*
X125109957Y-19700346D01*
X125110372Y-20128918D02*
X126610371Y-20127464D01*
X126610371Y-20127464D02*
X126395947Y-19984815D01*
X126395947Y-19984815D02*
X126252952Y-19842096D01*
X126252952Y-19842096D02*
X126181385Y-19699308D01*
X126611686Y-21484606D02*
X126611825Y-21627463D01*
X126611825Y-21627463D02*
X126540534Y-21770389D01*
X126540534Y-21770389D02*
X126469175Y-21841887D01*
X126469175Y-21841887D02*
X126326387Y-21913454D01*
X126326387Y-21913454D02*
X126040742Y-21985159D01*
X126040742Y-21985159D02*
X125683600Y-21985505D01*
X125683600Y-21985505D02*
X125397816Y-21914354D01*
X125397816Y-21914354D02*
X125254890Y-21843064D01*
X125254890Y-21843064D02*
X125183392Y-21771704D01*
X125183392Y-21771704D02*
X125111825Y-21628916D01*
X125111825Y-21628916D02*
X125111687Y-21486059D01*
X125111687Y-21486059D02*
X125182977Y-21343133D01*
X125182977Y-21343133D02*
X125254336Y-21271635D01*
X125254336Y-21271635D02*
X125397124Y-21200068D01*
X125397124Y-21200068D02*
X125682769Y-21128363D01*
X125682769Y-21128363D02*
X126039912Y-21128017D01*
X126039912Y-21128017D02*
X126325695Y-21199169D01*
X126325695Y-21199169D02*
X126468621Y-21270459D01*
X126468621Y-21270459D02*
X126540119Y-21341818D01*
X126540119Y-21341818D02*
X126611686Y-21484606D01*
X125255651Y-22628777D02*
X125184292Y-22700275D01*
X125184292Y-22700275D02*
X125112794Y-22628916D01*
X125112794Y-22628916D02*
X125184154Y-22557418D01*
X125184154Y-22557418D02*
X125255651Y-22628777D01*
X125255651Y-22628777D02*
X125112794Y-22628916D01*
X126613347Y-23198891D02*
X126614247Y-24127462D01*
X126614247Y-24127462D02*
X126042334Y-23628016D01*
X126042334Y-23628016D02*
X126042542Y-23842301D01*
X126042542Y-23842301D02*
X125971252Y-23985227D01*
X125971252Y-23985227D02*
X125899892Y-24056725D01*
X125899892Y-24056725D02*
X125757105Y-24128292D01*
X125757105Y-24128292D02*
X125399962Y-24128638D01*
X125399962Y-24128638D02*
X125257036Y-24057348D01*
X125257036Y-24057348D02*
X125185538Y-23985989D01*
X125185538Y-23985989D02*
X125113971Y-23843201D01*
X125113971Y-23843201D02*
X125113556Y-23414630D01*
X125113556Y-23414630D02*
X125184846Y-23271703D01*
X125184846Y-23271703D02*
X125256205Y-23200206D01*
X126471944Y-24699028D02*
X126543441Y-24770387D01*
X126543441Y-24770387D02*
X126615008Y-24913175D01*
X126615008Y-24913175D02*
X126615354Y-25270318D01*
X126615354Y-25270318D02*
X126544064Y-25413244D01*
X126544064Y-25413244D02*
X126472705Y-25484742D01*
X126472705Y-25484742D02*
X126329917Y-25556309D01*
X126329917Y-25556309D02*
X126187060Y-25556447D01*
X126187060Y-25556447D02*
X125972705Y-25485226D01*
X125972705Y-25485226D02*
X125114732Y-24628914D01*
X125114732Y-24628914D02*
X125115632Y-25557485D01*
X126616531Y-26484603D02*
X126616670Y-26627460D01*
X126616670Y-26627460D02*
X126545379Y-26770386D01*
X126545379Y-26770386D02*
X126474020Y-26841884D01*
X126474020Y-26841884D02*
X126331232Y-26913451D01*
X126331232Y-26913451D02*
X126045587Y-26985156D01*
X126045587Y-26985156D02*
X125688445Y-26985502D01*
X125688445Y-26985502D02*
X125402661Y-26914350D01*
X125402661Y-26914350D02*
X125259735Y-26843060D01*
X125259735Y-26843060D02*
X125188237Y-26771701D01*
X125188237Y-26771701D02*
X125116670Y-26628913D01*
X125116670Y-26628913D02*
X125116532Y-26486056D01*
X125116532Y-26486056D02*
X125187822Y-26343130D01*
X125187822Y-26343130D02*
X125259181Y-26271632D01*
X125259181Y-26271632D02*
X125401969Y-26200065D01*
X125401969Y-26200065D02*
X125687614Y-26128360D01*
X125687614Y-26128360D02*
X126044757Y-26128014D01*
X126044757Y-26128014D02*
X126330540Y-26199165D01*
X126330540Y-26199165D02*
X126473466Y-26270455D01*
X126473466Y-26270455D02*
X126544964Y-26341815D01*
X126544964Y-26341815D02*
X126616531Y-26484603D01*
X126617915Y-27913173D02*
X126618054Y-28056030D01*
X126618054Y-28056030D02*
X126546764Y-28198956D01*
X126546764Y-28198956D02*
X126475404Y-28270454D01*
X126475404Y-28270454D02*
X126332617Y-28342021D01*
X126332617Y-28342021D02*
X126046972Y-28413726D01*
X126046972Y-28413726D02*
X125689829Y-28414072D01*
X125689829Y-28414072D02*
X125404046Y-28342921D01*
X125404046Y-28342921D02*
X125261119Y-28271631D01*
X125261119Y-28271631D02*
X125189621Y-28200271D01*
X125189621Y-28200271D02*
X125118055Y-28057483D01*
X125118055Y-28057483D02*
X125117916Y-27914626D01*
X125117916Y-27914626D02*
X125189206Y-27771700D01*
X125189206Y-27771700D02*
X125260566Y-27700202D01*
X125260566Y-27700202D02*
X125403353Y-27628635D01*
X125403353Y-27628635D02*
X125688998Y-27556930D01*
X125688998Y-27556930D02*
X126046141Y-27556584D01*
X126046141Y-27556584D02*
X126331924Y-27627736D01*
X126331924Y-27627736D02*
X126474851Y-27699026D01*
X126474851Y-27699026D02*
X126546348Y-27770385D01*
X126546348Y-27770385D02*
X126617915Y-27913173D01*
X125120131Y-30200339D02*
X126120130Y-30199370D01*
X125977273Y-30199508D02*
X126048771Y-30270868D01*
X126048771Y-30270868D02*
X126120338Y-30413656D01*
X126120338Y-30413656D02*
X126120546Y-30627941D01*
X126120546Y-30627941D02*
X126049256Y-30770868D01*
X126049256Y-30770868D02*
X125906468Y-30842434D01*
X125906468Y-30842434D02*
X125120754Y-30843196D01*
X125906468Y-30842434D02*
X126049394Y-30913725D01*
X126049394Y-30913725D02*
X126120961Y-31056512D01*
X126120961Y-31056512D02*
X126121169Y-31270798D01*
X126121169Y-31270798D02*
X126049879Y-31413724D01*
X126049879Y-31413724D02*
X125907091Y-31485291D01*
X125907091Y-31485291D02*
X125121377Y-31486053D01*
X125122069Y-32200338D02*
X126122068Y-32199369D01*
X125979211Y-32199507D02*
X126050709Y-32270867D01*
X126050709Y-32270867D02*
X126122276Y-32413655D01*
X126122276Y-32413655D02*
X126122484Y-32627940D01*
X126122484Y-32627940D02*
X126051194Y-32770867D01*
X126051194Y-32770867D02*
X125908406Y-32842434D01*
X125908406Y-32842434D02*
X125122692Y-32843195D01*
X125908406Y-32842434D02*
X126051332Y-32913724D01*
X126051332Y-32913724D02*
X126122899Y-33056511D01*
X126122899Y-33056511D02*
X126123107Y-33270797D01*
X126123107Y-33270797D02*
X126051817Y-33413723D01*
X126051817Y-33413723D02*
X125909029Y-33485290D01*
X125909029Y-33485290D02*
X125123315Y-33486052D01*
D12*
X123500000Y-31790484D02*
X123413580Y-31790568D01*
X123490000Y-21470484D02*
X123403580Y-21470568D01*
X124000000Y-31790000D02*
X123990000Y-21470000D01*
X124000000Y-31790000D02*
X123990000Y-21470000D01*
X124000000Y-31790000D02*
X123412488Y-30664065D01*
X124000000Y-31790000D02*
X124585329Y-30662929D01*
X123990000Y-21470000D02*
X124577512Y-22595935D01*
X123990000Y-21470000D02*
X123404671Y-22597071D01*
D10*
D11*
X122878328Y-37652141D02*
X122878328Y-38509284D01*
X122878328Y-38080713D02*
X121378328Y-38080713D01*
X121378328Y-38080713D02*
X121592614Y-38223570D01*
X121592614Y-38223570D02*
X121735471Y-38366427D01*
X121735471Y-38366427D02*
X121806900Y-38509284D01*
X122735471Y-37009285D02*
X122806900Y-36937856D01*
X122806900Y-36937856D02*
X122878328Y-37009285D01*
X122878328Y-37009285D02*
X122806900Y-37080713D01*
X122806900Y-37080713D02*
X122735471Y-37009285D01*
X122735471Y-37009285D02*
X122878328Y-37009285D01*
X121378328Y-36009284D02*
X121378328Y-35866427D01*
X121378328Y-35866427D02*
X121449757Y-35723570D01*
X121449757Y-35723570D02*
X121521185Y-35652142D01*
X121521185Y-35652142D02*
X121664042Y-35580713D01*
X121664042Y-35580713D02*
X121949757Y-35509284D01*
X121949757Y-35509284D02*
X122306900Y-35509284D01*
X122306900Y-35509284D02*
X122592614Y-35580713D01*
X122592614Y-35580713D02*
X122735471Y-35652142D01*
X122735471Y-35652142D02*
X122806900Y-35723570D01*
X122806900Y-35723570D02*
X122878328Y-35866427D01*
X122878328Y-35866427D02*
X122878328Y-36009284D01*
X122878328Y-36009284D02*
X122806900Y-36152142D01*
X122806900Y-36152142D02*
X122735471Y-36223570D01*
X122735471Y-36223570D02*
X122592614Y-36294999D01*
X122592614Y-36294999D02*
X122306900Y-36366427D01*
X122306900Y-36366427D02*
X121949757Y-36366427D01*
X121949757Y-36366427D02*
X121664042Y-36294999D01*
X121664042Y-36294999D02*
X121521185Y-36223570D01*
X121521185Y-36223570D02*
X121449757Y-36152142D01*
X121449757Y-36152142D02*
X121378328Y-36009284D01*
X122878328Y-34080713D02*
X122878328Y-34937856D01*
X122878328Y-34509285D02*
X121378328Y-34509285D01*
X121378328Y-34509285D02*
X121592614Y-34652142D01*
X121592614Y-34652142D02*
X121735471Y-34794999D01*
X121735471Y-34794999D02*
X121806900Y-34937856D01*
X121378328Y-33152142D02*
X121378328Y-33009285D01*
X121378328Y-33009285D02*
X121449757Y-32866428D01*
X121449757Y-32866428D02*
X121521185Y-32795000D01*
X121521185Y-32795000D02*
X121664042Y-32723571D01*
X121664042Y-32723571D02*
X121949757Y-32652142D01*
X121949757Y-32652142D02*
X122306900Y-32652142D01*
X122306900Y-32652142D02*
X122592614Y-32723571D01*
X122592614Y-32723571D02*
X122735471Y-32795000D01*
X122735471Y-32795000D02*
X122806900Y-32866428D01*
X122806900Y-32866428D02*
X122878328Y-33009285D01*
X122878328Y-33009285D02*
X122878328Y-33152142D01*
X122878328Y-33152142D02*
X122806900Y-33295000D01*
X122806900Y-33295000D02*
X122735471Y-33366428D01*
X122735471Y-33366428D02*
X122592614Y-33437857D01*
X122592614Y-33437857D02*
X122306900Y-33509285D01*
X122306900Y-33509285D02*
X121949757Y-33509285D01*
X121949757Y-33509285D02*
X121664042Y-33437857D01*
X121664042Y-33437857D02*
X121521185Y-33366428D01*
X121521185Y-33366428D02*
X121449757Y-33295000D01*
X121449757Y-33295000D02*
X121378328Y-33152142D01*
X121378328Y-31723571D02*
X121378328Y-31580714D01*
X121378328Y-31580714D02*
X121449757Y-31437857D01*
X121449757Y-31437857D02*
X121521185Y-31366429D01*
X121521185Y-31366429D02*
X121664042Y-31295000D01*
X121664042Y-31295000D02*
X121949757Y-31223571D01*
X121949757Y-31223571D02*
X122306900Y-31223571D01*
X122306900Y-31223571D02*
X122592614Y-31295000D01*
X122592614Y-31295000D02*
X122735471Y-31366429D01*
X122735471Y-31366429D02*
X122806900Y-31437857D01*
X122806900Y-31437857D02*
X122878328Y-31580714D01*
X122878328Y-31580714D02*
X122878328Y-31723571D01*
X122878328Y-31723571D02*
X122806900Y-31866429D01*
X122806900Y-31866429D02*
X122735471Y-31937857D01*
X122735471Y-31937857D02*
X122592614Y-32009286D01*
X122592614Y-32009286D02*
X122306900Y-32080714D01*
X122306900Y-32080714D02*
X121949757Y-32080714D01*
X121949757Y-32080714D02*
X121664042Y-32009286D01*
X121664042Y-32009286D02*
X121521185Y-31937857D01*
X121521185Y-31937857D02*
X121449757Y-31866429D01*
X121449757Y-31866429D02*
X121378328Y-31723571D01*
X122878328Y-29437858D02*
X121878328Y-29437858D01*
X122021185Y-29437858D02*
X121949757Y-29366429D01*
X121949757Y-29366429D02*
X121878328Y-29223572D01*
X121878328Y-29223572D02*
X121878328Y-29009286D01*
X121878328Y-29009286D02*
X121949757Y-28866429D01*
X121949757Y-28866429D02*
X122092614Y-28795001D01*
X122092614Y-28795001D02*
X122878328Y-28795001D01*
X122092614Y-28795001D02*
X121949757Y-28723572D01*
X121949757Y-28723572D02*
X121878328Y-28580715D01*
X121878328Y-28580715D02*
X121878328Y-28366429D01*
X121878328Y-28366429D02*
X121949757Y-28223572D01*
X121949757Y-28223572D02*
X122092614Y-28152143D01*
X122092614Y-28152143D02*
X122878328Y-28152143D01*
X122878328Y-27437858D02*
X121878328Y-27437858D01*
X122021185Y-27437858D02*
X121949757Y-27366429D01*
X121949757Y-27366429D02*
X121878328Y-27223572D01*
X121878328Y-27223572D02*
X121878328Y-27009286D01*
X121878328Y-27009286D02*
X121949757Y-26866429D01*
X121949757Y-26866429D02*
X122092614Y-26795001D01*
X122092614Y-26795001D02*
X122878328Y-26795001D01*
X122092614Y-26795001D02*
X121949757Y-26723572D01*
X121949757Y-26723572D02*
X121878328Y-26580715D01*
X121878328Y-26580715D02*
X121878328Y-26366429D01*
X121878328Y-26366429D02*
X121949757Y-26223572D01*
X121949757Y-26223572D02*
X122092614Y-26152143D01*
X122092614Y-26152143D02*
X122878328Y-26152143D01*
D12*
X123500000Y-32800000D02*
X123413580Y-32800000D01*
X123500000Y-31790000D02*
X123413580Y-31790000D01*
X124000000Y-32800000D02*
X124000000Y-31790000D01*
X124000000Y-32800000D02*
X124000000Y-31790000D01*
X124000000Y-32800000D02*
X123413579Y-31673496D01*
X124000000Y-32800000D02*
X124586421Y-31673496D01*
X124000000Y-31790000D02*
X124586421Y-32916504D01*
X124000000Y-31790000D02*
X123413579Y-32916504D01*
D13*
G04 #@! TO.P,JP1,1,A*
G04 #@! TO.N,/VIN+*
X122640600Y-39783800D03*
G04 #@! TO.P,JP1,2,B*
G04 #@! TO.N,Net-(J3-VIN)*
X121340600Y-39783800D03*
G04 #@! TD*
D14*
G04 #@! TO.P,J3,1,Pin_1*
G04 #@! TO.N,unconnected-(J3-Pin_1-Pad1)*
X172246800Y-29262800D03*
G04 #@! TO.P,J3,2,Pin_2*
G04 #@! TO.N,unconnected-(J3-Pin_2-Pad2)*
X172246800Y-34302800D03*
G04 #@! TO.P,J3,3,Pin_3*
G04 #@! TO.N,/VCC*
X169706800Y-29262800D03*
G04 #@! TO.P,J3,4,Pin_4*
G04 #@! TO.N,/PHI*
X169706800Y-34302800D03*
G04 #@! TO.P,J3,5,Pin_5*
G04 #@! TO.N,/~{WR}*
X167166800Y-29262800D03*
G04 #@! TO.P,J3,6,Pin_6*
G04 #@! TO.N,/~{RD}*
X167166800Y-34302800D03*
G04 #@! TO.P,J3,7,Pin_7*
G04 #@! TO.N,/~{CS}*
X164626800Y-29262800D03*
G04 #@! TO.P,J3,8,Pin_8*
G04 #@! TO.N,/A0*
X164626800Y-34302800D03*
G04 #@! TO.P,J3,9,Pin_9*
G04 #@! TO.N,/A1*
X162086800Y-29262800D03*
G04 #@! TO.P,J3,10,Pin_10*
G04 #@! TO.N,/A2*
X162086800Y-34302800D03*
G04 #@! TO.P,J3,11,Pin_11*
G04 #@! TO.N,/A3*
X159546800Y-29262800D03*
G04 #@! TO.P,J3,12,Pin_12*
G04 #@! TO.N,/A4*
X159546800Y-34302800D03*
G04 #@! TO.P,J3,13,Pin_13*
G04 #@! TO.N,/A5*
X157006800Y-29262800D03*
G04 #@! TO.P,J3,14,Pin_14*
G04 #@! TO.N,/A6*
X157006800Y-34302800D03*
G04 #@! TO.P,J3,15,Pin_15*
G04 #@! TO.N,/A7*
X154466800Y-29262800D03*
G04 #@! TO.P,J3,16,Pin_16*
G04 #@! TO.N,/A8*
X154466800Y-34302800D03*
G04 #@! TO.P,J3,17,Pin_17*
G04 #@! TO.N,/A9*
X151926800Y-29262800D03*
G04 #@! TO.P,J3,18,Pin_18*
G04 #@! TO.N,/A10*
X151926800Y-34302800D03*
G04 #@! TO.P,J3,19,Pin_19*
G04 #@! TO.N,/A11*
X149386800Y-29262800D03*
G04 #@! TO.P,J3,20,Pin_20*
G04 #@! TO.N,/A12*
X149386800Y-34302800D03*
G04 #@! TO.P,J3,21,Pin_21*
G04 #@! TO.N,/A13*
X146846800Y-29262800D03*
G04 #@! TO.P,J3,22,Pin_22*
G04 #@! TO.N,/A14*
X146846800Y-34302800D03*
G04 #@! TO.P,J3,23,Pin_23*
G04 #@! TO.N,/A15*
X144306800Y-29262800D03*
G04 #@! TO.P,J3,24,Pin_24*
G04 #@! TO.N,/D0*
X144306800Y-34302800D03*
G04 #@! TO.P,J3,25,Pin_25*
G04 #@! TO.N,/D1*
X141766800Y-29262800D03*
G04 #@! TO.P,J3,26,Pin_26*
G04 #@! TO.N,/D2*
X141766800Y-34302800D03*
G04 #@! TO.P,J3,27,Pin_27*
G04 #@! TO.N,/D3*
X139226800Y-29262800D03*
G04 #@! TO.P,J3,28,Pin_28*
G04 #@! TO.N,/D4*
X139226800Y-34302800D03*
G04 #@! TO.P,J3,29,Pin_29*
G04 #@! TO.N,/D5*
X136686800Y-29262800D03*
G04 #@! TO.P,J3,30,Pin_30*
G04 #@! TO.N,/D6*
X136686800Y-34302800D03*
G04 #@! TO.P,J3,31,Pin_31*
G04 #@! TO.N,/D7*
X134146800Y-29262800D03*
G04 #@! TO.P,J3,32,Pin_32*
G04 #@! TO.N,/~{RES}*
X134146800Y-34302800D03*
G04 #@! TO.P,J3,33,Pin_33*
G04 #@! TO.N,/VIN+*
X131606800Y-29262800D03*
G04 #@! TO.P,J3,34,Pin_34*
G04 #@! TO.N,unconnected-(J3-Pin_34-Pad34)*
X131606800Y-34302800D03*
G04 #@! TO.P,J3,35,Pin_35*
G04 #@! TO.N,unconnected-(J3-Pin_35-Pad35)*
X129066800Y-29262800D03*
G04 #@! TO.P,J3,36,Pin_36*
G04 #@! TO.N,unconnected-(J3-Pin_36-Pad36)*
X129066800Y-34302800D03*
G04 #@! TO.P,J3,37,Pin_37*
G04 #@! TO.N,GND*
X126526800Y-29262800D03*
G04 #@! TO.P,J3,38,Pin_38*
X126526800Y-34302800D03*
G04 #@! TO.P,J3,39,Pin_39*
G04 #@! TO.N,unconnected-(J3-Pin_39-Pad39)*
X123986800Y-29262800D03*
G04 #@! TO.P,J3,40,Pin_40*
G04 #@! TO.N,unconnected-(J3-Pin_40-Pad40)*
X123986800Y-34302800D03*
G04 #@! TD*
D15*
G04 #@! TO.P,H5,1,1*
G04 #@! TO.N,GND*
X177901600Y-24910000D03*
X178560610Y-23319010D03*
X178560610Y-26500990D03*
X180151600Y-22660000D03*
D16*
X180151600Y-24910000D03*
D15*
X180151600Y-27160000D03*
X181742590Y-23319010D03*
X181742590Y-26500990D03*
X182401600Y-24910000D03*
G04 #@! TD*
G04 #@! TO.P,H1,1,1*
G04 #@! TO.N,GND*
X113710000Y-24910000D03*
X114369010Y-23319010D03*
X114369010Y-26500990D03*
X115960000Y-22660000D03*
D16*
X115960000Y-24910000D03*
D15*
X115960000Y-27160000D03*
X117550990Y-23319010D03*
X117550990Y-26500990D03*
X118210000Y-24910000D03*
G04 #@! TD*
G04 #@! TO.P,H2,1,1*
G04 #@! TO.N,GND*
X113710000Y-38690000D03*
X114369010Y-37099010D03*
X114369010Y-40280990D03*
X115960000Y-36440000D03*
D16*
X115960000Y-38690000D03*
D15*
X115960000Y-40940000D03*
X117550990Y-37099010D03*
X117550990Y-40280990D03*
X118210000Y-38690000D03*
G04 #@! TD*
G04 #@! TO.P,H6,1,1*
G04 #@! TO.N,GND*
X177901600Y-38690000D03*
X178560610Y-37099010D03*
X178560610Y-40280990D03*
X180151600Y-36440000D03*
D16*
X180151600Y-38690000D03*
D15*
X180151600Y-40940000D03*
X181742590Y-37099010D03*
X181742590Y-40280990D03*
X182401600Y-38690000D03*
G04 #@! TD*
D17*
G04 #@! TO.N,/A5*
X156346400Y-25686800D03*
G04 #@! TO.N,/PHI*
X169859200Y-25686800D03*
G04 #@! TO.N,/VCC*
X120670000Y-24180000D03*
G04 #@! TO.N,/~{RD}*
X167141400Y-32214600D03*
G04 #@! TO.N,/A8*
X153603200Y-32417800D03*
G04 #@! TO.N,/A4*
X158632400Y-32570200D03*
G04 #@! TO.N,/A12*
X148574000Y-32519400D03*
G04 #@! TO.N,/VIN+*
X123961400Y-39809200D03*
G04 #@! TO.N,/A7*
X153374600Y-25585200D03*
G04 #@! TO.N,/A2*
X162950400Y-32417800D03*
G04 #@! TO.N,Net-(J3-VIN)*
X126374400Y-25534400D03*
G04 #@! TO.N,/VCC*
X171350400Y-25432800D03*
G04 #@! TO.N,/A11*
X147354800Y-25559800D03*
G04 #@! TO.N,/VIN+*
X131606800Y-31274800D03*
G04 #@! TO.N,/A6*
X156194000Y-32443200D03*
G04 #@! TO.N,/A15*
X141360400Y-25559800D03*
G04 #@! TO.N,GND*
X119389400Y-27185400D03*
X135924800Y-41663400D03*
G04 #@! TO.N,/D0*
X143214600Y-32544800D03*
G04 #@! TO.N,/A9*
X150352000Y-25585200D03*
G04 #@! TO.N,/D1*
X138363200Y-25534400D03*
G04 #@! TO.N,/~{WR}*
X168360600Y-25610600D03*
G04 #@! TO.N,GND*
X176793400Y-44965400D03*
G04 #@! TO.N,/A10*
X151088600Y-32494000D03*
G04 #@! TO.N,/D4*
X138236200Y-32392400D03*
G04 #@! TO.N,/D5*
X132350400Y-25534400D03*
G04 #@! TO.N,GND*
X176069800Y-23121400D03*
G04 #@! TO.N,/~{RES}*
X127847600Y-25534400D03*
G04 #@! TO.N,/D7*
X129346200Y-25559800D03*
G04 #@! TO.N,/D6*
X135645400Y-34297400D03*
G04 #@! TO.N,GND*
X126530000Y-31660000D03*
G04 #@! TO.N,/~{CS}*
X165338000Y-25610600D03*
G04 #@! TO.N,GND*
X119389400Y-44965400D03*
X126526800Y-36380200D03*
G04 #@! TO.N,/A1*
X162340800Y-25610600D03*
G04 #@! TO.N,GND*
X176793400Y-27185400D03*
G04 #@! TO.N,/A3*
X159343600Y-25636000D03*
G04 #@! TO.N,GND*
X161959800Y-41663400D03*
G04 #@! TO.N,/A0*
X164626800Y-32214600D03*
G04 #@! TO.N,/D2*
X140674600Y-32468600D03*
G04 #@! TO.N,/D3*
X135340600Y-25534400D03*
G04 #@! TO.N,GND*
X124843000Y-25534400D03*
G04 #@! TO.N,/~{RES}*
X122380000Y-24070000D03*
G04 #@! TO.N,/A13*
X144357600Y-25509000D03*
G04 #@! TO.N,/A14*
X145932400Y-32671800D03*
G04 #@! TD*
D18*
G04 #@! TO.N,Net-(J3-VIN)*
X125250000Y-27360000D02*
X125250000Y-37160000D01*
X125250000Y-37160000D02*
X124590000Y-37820000D01*
X121340600Y-38719400D02*
X121340600Y-39783800D01*
X124590000Y-37820000D02*
X122240000Y-37820000D01*
X122240000Y-37820000D02*
X121340600Y-38719400D01*
D19*
G04 #@! TO.N,/VCC*
X169706800Y-29262800D02*
X169706800Y-27693400D01*
X171350400Y-26049800D02*
X171350400Y-25432800D01*
D20*
G04 #@! TO.N,/VIN+*
X131606800Y-29262800D02*
X131606800Y-31274800D01*
G04 #@! TO.N,/~{WR}*
X168360600Y-25610600D02*
X167166800Y-26804400D01*
D18*
G04 #@! TO.N,/A0*
X164626800Y-32214600D02*
X164626800Y-34302800D01*
G04 #@! TO.N,/~{RD}*
X167141400Y-32214600D02*
X167141400Y-34277400D01*
G04 #@! TO.N,/PHI*
X169859200Y-25686800D02*
X168462200Y-27083800D01*
X168462200Y-31224000D02*
X169706800Y-32468600D01*
X169706800Y-32468600D02*
X169706800Y-34302800D01*
D20*
G04 #@! TO.N,/~{WR}*
X167166800Y-26804400D02*
X167166800Y-29262800D01*
D18*
G04 #@! TO.N,/~{RD}*
X167141400Y-34277400D02*
X167166800Y-34302800D01*
G04 #@! TO.N,/A3*
X159343600Y-25636000D02*
X159546800Y-25839200D01*
G04 #@! TO.N,/A5*
X156346400Y-25686800D02*
X157006800Y-26347200D01*
G04 #@! TO.N,Net-(J3-VIN)*
X126374400Y-26235600D02*
X125250000Y-27360000D01*
D20*
G04 #@! TO.N,/A4*
X159546800Y-34302800D02*
X159546800Y-33484600D01*
G04 #@! TO.N,/A2*
X162086800Y-33281400D02*
X162950400Y-32417800D01*
G04 #@! TO.N,/A7*
X153374600Y-25585200D02*
X154466800Y-26677400D01*
G04 #@! TO.N,/~{CS}*
X165338000Y-25610600D02*
X164626800Y-26321800D01*
G04 #@! TO.N,/A9*
X151926800Y-27160000D02*
X151926800Y-29262800D01*
D18*
G04 #@! TO.N,/A12*
X149386800Y-33332200D02*
X149386800Y-34302800D01*
D20*
G04 #@! TO.N,/A6*
X157006800Y-34302800D02*
X157006800Y-33256000D01*
G04 #@! TO.N,/A13*
X146846800Y-27896600D02*
X146846800Y-29262800D01*
G04 #@! TO.N,/A7*
X154466800Y-26677400D02*
X154466800Y-29262800D01*
G04 #@! TO.N,/A8*
X154466800Y-34302800D02*
X154466800Y-33281400D01*
G04 #@! TO.N,/A9*
X150352000Y-25585200D02*
X151926800Y-27160000D01*
G04 #@! TO.N,/A10*
X151926800Y-33332200D02*
X151088600Y-32494000D01*
D18*
G04 #@! TO.N,/A12*
X148574000Y-32519400D02*
X149386800Y-33332200D01*
D20*
G04 #@! TO.N,/A11*
X149386800Y-27591800D02*
X149386800Y-29262800D01*
G04 #@! TO.N,/A6*
X157006800Y-33256000D02*
X156194000Y-32443200D01*
G04 #@! TO.N,/A8*
X154466800Y-33281400D02*
X153603200Y-32417800D01*
G04 #@! TO.N,/~{CS}*
X164626800Y-26321800D02*
X164626800Y-29262800D01*
D18*
G04 #@! TO.N,/D2*
X141766800Y-33560800D02*
X141766800Y-34302800D01*
D19*
G04 #@! TO.N,/VCC*
X169706800Y-27693400D02*
X171350400Y-26049800D01*
D18*
G04 #@! TO.N,/A14*
X145932400Y-32671800D02*
X146846800Y-33586200D01*
G04 #@! TO.N,/D0*
X144306800Y-33637000D02*
X144306800Y-34302800D01*
D20*
G04 #@! TO.N,/A15*
X141360400Y-25559800D02*
X141741400Y-25559800D01*
G04 #@! TO.N,/D1*
X138363200Y-25534400D02*
X138972800Y-25534400D01*
D18*
G04 #@! TO.N,/D0*
X143214600Y-32544800D02*
X144306800Y-33637000D01*
G04 #@! TO.N,/D2*
X140674600Y-32468600D02*
X141766800Y-33560800D01*
D20*
G04 #@! TO.N,/D1*
X138972800Y-25534400D02*
X141766800Y-28328400D01*
G04 #@! TO.N,/D3*
X136356600Y-25534400D02*
X139226800Y-28404600D01*
G04 #@! TO.N,/A13*
X144459200Y-25509000D02*
X146846800Y-27896600D01*
X144357600Y-25509000D02*
X144459200Y-25509000D01*
G04 #@! TO.N,/D3*
X139226800Y-28404600D02*
X139226800Y-29262800D01*
G04 #@! TO.N,/A15*
X141741400Y-25559800D02*
X144306800Y-28125200D01*
D18*
G04 #@! TO.N,/A14*
X146846800Y-33586200D02*
X146846800Y-34302800D01*
D20*
G04 #@! TO.N,/D3*
X135340600Y-25534400D02*
X136356600Y-25534400D01*
G04 #@! TO.N,/D1*
X141766800Y-28328400D02*
X141766800Y-29262800D01*
D18*
G04 #@! TO.N,/A1*
X162086800Y-25864600D02*
X162086800Y-29262800D01*
D20*
G04 #@! TO.N,/D5*
X132350400Y-25534400D02*
X133994400Y-25534400D01*
G04 #@! TO.N,/D4*
X139226800Y-33383000D02*
X138236200Y-32392400D01*
X139226800Y-34302800D02*
X139226800Y-33383000D01*
X139226800Y-34302800D02*
X139226800Y-33002000D01*
G04 #@! TO.N,/D5*
X136686800Y-28226800D02*
X136686800Y-29262800D01*
G04 #@! TO.N,/A4*
X159546800Y-33484600D02*
X158632400Y-32570200D01*
G04 #@! TO.N,/D5*
X133994400Y-25534400D02*
X136686800Y-28226800D01*
G04 #@! TO.N,GND*
X126526800Y-31656800D02*
X126530000Y-31660000D01*
X126526800Y-29262800D02*
X126526800Y-31656800D01*
D18*
G04 #@! TO.N,/~{RES}*
X127847600Y-25534400D02*
X127847600Y-36253200D01*
X128533400Y-36939000D02*
X133918200Y-36939000D01*
D20*
G04 #@! TO.N,/VIN+*
X122666000Y-39809200D02*
X122640600Y-39783800D01*
D18*
G04 #@! TO.N,/~{RES}*
X133918200Y-36939000D02*
X134146800Y-36710400D01*
D20*
G04 #@! TO.N,GND*
X126526800Y-29262800D02*
X126526800Y-28912600D01*
D18*
G04 #@! TO.N,/PHI*
X168462200Y-27083800D02*
X168462200Y-31224000D01*
D20*
G04 #@! TO.N,/D7*
X134146800Y-28607800D02*
X134146800Y-29262800D01*
G04 #@! TO.N,/A15*
X144306800Y-28125200D02*
X144306800Y-29262800D01*
D18*
G04 #@! TO.N,/~{RES}*
X127847600Y-36253200D02*
X128533400Y-36939000D01*
X134146800Y-36710400D02*
X134146800Y-34302800D01*
G04 #@! TO.N,GND*
X126526800Y-34302800D02*
X126526800Y-36380200D01*
D20*
G04 #@! TO.N,/VIN+*
X123961400Y-39809200D02*
X122666000Y-39809200D01*
G04 #@! TO.N,/D7*
X129346200Y-25559800D02*
X131098800Y-25559800D01*
X131098800Y-25559800D02*
X134146800Y-28607800D01*
G04 #@! TO.N,/A10*
X151926800Y-34302800D02*
X151926800Y-33332200D01*
D18*
G04 #@! TO.N,/D6*
X136681400Y-34297400D02*
X136686800Y-34302800D01*
G04 #@! TO.N,/A1*
X162340800Y-25610600D02*
X162086800Y-25864600D01*
G04 #@! TO.N,/A3*
X159546800Y-25839200D02*
X159546800Y-29262800D01*
G04 #@! TO.N,/D6*
X135645400Y-34297400D02*
X136681400Y-34297400D01*
D20*
G04 #@! TO.N,/A2*
X162086800Y-34302800D02*
X162086800Y-33281400D01*
D18*
G04 #@! TO.N,/A5*
X157006800Y-26347200D02*
X157006800Y-29262800D01*
G04 #@! TO.N,Net-(J3-VIN)*
X126374400Y-25534400D02*
X126374400Y-26235600D01*
D20*
G04 #@! TO.N,/A11*
X147354800Y-25559800D02*
X149386800Y-27591800D01*
G04 #@! TO.N,GND*
X124850400Y-25541800D02*
X124843000Y-25534400D01*
G04 #@! TD*
D21*
X118398800Y-21470400D02*
X112242600Y-21470400D01*
X124444000Y-46616400D02*
X124317000Y-46616400D01*
X177834800Y-46616400D02*
X172069000Y-46616400D01*
X177834800Y-46616400D02*
X183946800Y-46616400D01*
X118398800Y-21470400D02*
X177834800Y-21470400D01*
X118398800Y-46616400D02*
X124317000Y-46616400D01*
X177834800Y-21470400D02*
X183946800Y-21470400D01*
X124444000Y-46616400D02*
X172069000Y-46616400D01*
X183946800Y-21470400D02*
X183946800Y-46616400D01*
X118398800Y-46616400D02*
X112242600Y-46616400D01*
X112242600Y-21470400D02*
X112242600Y-46616400D01*
M02*
